<?xml version="1.0" encoding="UTF-8" standalone="no"?>
<!DOCTYPE svg PUBLIC "-//W3C//DTD SVG 1.1//EN"
 "http://www.w3.org/Graphics/SVG/1.1/DTD/svg11.dtd">
<!-- Generated by graphviz version 2.40.1 (20161225.0304)
 -->
<!-- Title: dependencies Pages: 1 -->
<svg width="1200pt" height="284pt"
 viewBox="0.00 0.00 1200.00 284.00" xmlns="http://www.w3.org/2000/svg" xmlns:xlink="http://www.w3.org/1999/xlink">
<g id="graph0" class="graph" transform="scale(1 1) rotate(0) translate(4 280)">
<title>dependencies</title>
<polygon fill="#ffffff" stroke="transparent" points="-4,4 -4,-280 1196,-280 1196,4 -4,4"/>
<text text-anchor="start" x="575.0091" y="-42.4" font-family="sans-serif" font-weight="bold" font-size="14.00" fill="#000000">Legend</text>
<polygon fill="#ffffb3" stroke="transparent" points="362,-10 362,-30 382,-30 382,-10 362,-10"/>
<text text-anchor="start" x="385.629" y="-15.4" font-family="sans-serif" font-size="14.00" fill="#000000"> &#160;Declarations</text>
<polygon fill="#8dd3c7" stroke="transparent" points="475,-10 475,-30 495,-30 495,-10 475,-10"/>
<text text-anchor="start" x="498.7251" y="-15.4" font-family="sans-serif" font-size="14.00" fill="#000000"> &#160;Module</text>
<polygon fill="#80b1d3" stroke="transparent" points="561,-10 561,-30 581,-30 581,-10 561,-10"/>
<text text-anchor="start" x="584.7812" y="-15.4" font-family="sans-serif" font-size="14.00" fill="#000000"> &#160;Bootstrap</text>
<polygon fill="#fdb462" stroke="transparent" points="658,-10 658,-30 678,-30 678,-10 658,-10"/>
<text text-anchor="start" x="681.6732" y="-15.4" font-family="sans-serif" font-size="14.00" fill="#000000"> &#160;Providers</text>
<polygon fill="#fb8072" stroke="transparent" points="754,-10 754,-30 774,-30 774,-10 754,-10"/>
<text text-anchor="start" x="777.7258" y="-15.4" font-family="sans-serif" font-size="14.00" fill="#000000"> &#160;Exports</text>
<g id="clust1" class="cluster">
<title>cluster_InsuranceModule</title>
<polygon fill="none" stroke="#000000" stroke-dasharray="1,5" points="8,-70 8,-268 1184,-268 1184,-70 8,-70"/>
</g>
<g id="clust2" class="cluster">
<title>cluster_InsuranceModule_declarations</title>
<polygon fill="none" stroke="#000000" points="316,-78 316,-130 1176,-130 1176,-78 316,-78"/>
</g>
<g id="clust8" class="cluster">
<title>cluster_InsuranceModule_imports</title>
<polygon fill="none" stroke="#000000" points="16,-78 16,-130 308,-130 308,-78 16,-78"/>
</g>
<g id="clust9" class="cluster">
<title>cluster_InsuranceModule_exports</title>
<polygon fill="none" stroke="#000000" points="138,-208 138,-260 1014,-260 1014,-208 138,-208"/>
</g>
<!-- InsuranceInfoComponent -->
<g id="node1" class="node">
<title>InsuranceInfoComponent</title>
<polygon fill="#ffffb3" stroke="#000000" points="1167.5632,-122 1008.4368,-122 1008.4368,-86 1167.5632,-86 1167.5632,-122"/>
<text text-anchor="middle" x="1088" y="-99.8" font-family="Times,serif" font-size="14.00" fill="#000000">InsuranceInfoComponent</text>
</g>
<!-- InsuranceModule -->
<g id="node6" class="node">
<title>InsuranceModule</title>
<polygon fill="#8dd3c7" stroke="#000000" points="615.9594,-187 612.9594,-191 591.9594,-191 588.9594,-187 502.0406,-187 502.0406,-151 615.9594,-151 615.9594,-187"/>
<text text-anchor="middle" x="559" y="-164.8" font-family="Times,serif" font-size="14.00" fill="#000000">InsuranceModule</text>
</g>
<!-- InsuranceInfoComponent&#45;&gt;InsuranceModule -->
<g id="edge1" class="edge">
<title>InsuranceInfoComponent&#45;&gt;InsuranceModule</title>
<path fill="none" stroke="#000000" d="M1088,-122.1061C1088,-141.3391 1088,-169 1088,-169 1088,-169 626.1149,-169 626.1149,-169"/>
<polygon fill="#000000" stroke="#000000" points="626.1149,-165.5001 616.1149,-169 626.1148,-172.5001 626.1149,-165.5001"/>
</g>
<!-- InsuranceFormComponent -->
<g id="node2" class="node">
<title>InsuranceFormComponent</title>
<polygon fill="#ffffb3" stroke="#000000" points="990.0758,-122 823.9242,-122 823.9242,-86 990.0758,-86 990.0758,-122"/>
<text text-anchor="middle" x="907" y="-99.8" font-family="Times,serif" font-size="14.00" fill="#000000">InsuranceFormComponent</text>
</g>
<!-- InsuranceFormComponent&#45;&gt;InsuranceModule -->
<g id="edge2" class="edge">
<title>InsuranceFormComponent&#45;&gt;InsuranceModule</title>
<path fill="none" stroke="#000000" d="M834.7532,-122.0225C834.7532,-139.3734 834.7532,-163 834.7532,-163 834.7532,-163 626.1362,-163 626.1362,-163"/>
<polygon fill="#000000" stroke="#000000" points="626.1363,-159.5001 616.1362,-163 626.1362,-166.5001 626.1363,-159.5001"/>
</g>
<!-- VehicleFormComponent -->
<g id="node3" class="node">
<title>VehicleFormComponent</title>
<polygon fill="#ffffb3" stroke="#000000" points="805.6979,-122 650.3021,-122 650.3021,-86 805.6979,-86 805.6979,-122"/>
<text text-anchor="middle" x="728" y="-99.8" font-family="Times,serif" font-size="14.00" fill="#000000">VehicleFormComponent</text>
</g>
<!-- VehicleFormComponent&#45;&gt;InsuranceModule -->
<g id="edge3" class="edge">
<title>VehicleFormComponent&#45;&gt;InsuranceModule</title>
<path fill="none" stroke="#000000" d="M755.8033,-122.2396C755.8033,-137.5706 755.8033,-157 755.8033,-157 755.8033,-157 626.188,-157 626.188,-157"/>
<polygon fill="#000000" stroke="#000000" points="626.1881,-153.5001 616.188,-157 626.188,-160.5001 626.1881,-153.5001"/>
</g>
<!-- ClientFormComponent -->
<g id="node4" class="node">
<title>ClientFormComponent</title>
<polygon fill="#ffffb3" stroke="#000000" points="631.8892,-122 486.1108,-122 486.1108,-86 631.8892,-86 631.8892,-122"/>
<text text-anchor="middle" x="559" y="-99.8" font-family="Times,serif" font-size="14.00" fill="#000000">ClientFormComponent</text>
</g>
<!-- ClientFormComponent&#45;&gt;InsuranceModule -->
<g id="edge4" class="edge">
<title>ClientFormComponent&#45;&gt;InsuranceModule</title>
<path fill="none" stroke="#000000" d="M559,-122.1061C559,-122.1061 559,-140.991 559,-140.991"/>
<polygon fill="#000000" stroke="#000000" points="555.5001,-140.9909 559,-150.991 562.5001,-140.991 555.5001,-140.9909"/>
</g>
<!-- CompaniesComponent -->
<g id="node5" class="node">
<title>CompaniesComponent</title>
<polygon fill="#ffffb3" stroke="#000000" points="468.3244,-122 323.6756,-122 323.6756,-86 468.3244,-86 468.3244,-122"/>
<text text-anchor="middle" x="396" y="-99.8" font-family="Times,serif" font-size="14.00" fill="#000000">CompaniesComponent</text>
</g>
<!-- CompaniesComponent&#45;&gt;InsuranceModule -->
<g id="edge5" class="edge">
<title>CompaniesComponent&#45;&gt;InsuranceModule</title>
<path fill="none" stroke="#000000" d="M415.7424,-122.2396C415.7424,-137.5706 415.7424,-157 415.7424,-157 415.7424,-157 491.9692,-157 491.9692,-157"/>
<polygon fill="#000000" stroke="#000000" points="491.9692,-160.5001 501.9692,-157 491.9691,-153.5001 491.9692,-160.5001"/>
</g>
<!-- InsuranceInfoComponent  -->
<g id="node9" class="node">
<title>InsuranceInfoComponent </title>
<polygon fill="#fb8072" stroke="#000000" points="1006.0638,-252 843.9362,-252 843.9362,-216 1006.0638,-216 1006.0638,-252"/>
<text text-anchor="middle" x="925" y="-229.8" font-family="Times,serif" font-size="14.00" fill="#000000">InsuranceInfoComponent </text>
</g>
<!-- InsuranceModule&#45;&gt;InsuranceInfoComponent  -->
<g id="edge8" class="edge">
<title>InsuranceModule&#45;&gt;InsuranceInfoComponent </title>
<path fill="none" stroke="#000000" stroke-dasharray="5,2" d="M616.1026,-175C717.1413,-175 916.8782,-175 916.8782,-175 916.8782,-175 916.8782,-205.9775 916.8782,-205.9775"/>
<polygon fill="#000000" stroke="#000000" points="913.3782,-205.9774 916.8782,-215.9775 920.3782,-205.9775 913.3782,-205.9774"/>
</g>
<!-- InsuranceFormComponent  -->
<g id="node10" class="node">
<title>InsuranceFormComponent </title>
<polygon fill="#fb8072" stroke="#000000" points="825.5763,-252 656.4237,-252 656.4237,-216 825.5763,-216 825.5763,-252"/>
<text text-anchor="middle" x="741" y="-229.8" font-family="Times,serif" font-size="14.00" fill="#000000">InsuranceFormComponent </text>
</g>
<!-- InsuranceModule&#45;&gt;InsuranceFormComponent  -->
<g id="edge9" class="edge">
<title>InsuranceModule&#45;&gt;InsuranceFormComponent </title>
<path fill="none" stroke="#000000" stroke-dasharray="5,2" d="M616.258,-181C657.5353,-181 706.0077,-181 706.0077,-181 706.0077,-181 706.0077,-205.7604 706.0077,-205.7604"/>
<polygon fill="#000000" stroke="#000000" points="702.5078,-205.7604 706.0077,-215.7604 709.5078,-205.7604 702.5078,-205.7604"/>
</g>
<!-- VehicleFormComponent  -->
<g id="node11" class="node">
<title>VehicleFormComponent </title>
<polygon fill="#fb8072" stroke="#000000" points="638.1981,-252 479.8019,-252 479.8019,-216 638.1981,-216 638.1981,-252"/>
<text text-anchor="middle" x="559" y="-229.8" font-family="Times,serif" font-size="14.00" fill="#000000">VehicleFormComponent </text>
</g>
<!-- InsuranceModule&#45;&gt;VehicleFormComponent  -->
<g id="edge10" class="edge">
<title>InsuranceModule&#45;&gt;VehicleFormComponent </title>
<path fill="none" stroke="#000000" stroke-dasharray="5,2" d="M559,-187.1061C559,-187.1061 559,-205.991 559,-205.991"/>
<polygon fill="#000000" stroke="#000000" points="555.5001,-205.9909 559,-215.991 562.5001,-205.991 555.5001,-205.9909"/>
</g>
<!-- ClientFormComponent  -->
<g id="node12" class="node">
<title>ClientFormComponent </title>
<polygon fill="#fb8072" stroke="#000000" points="461.8897,-252 312.1103,-252 312.1103,-216 461.8897,-216 461.8897,-252"/>
<text text-anchor="middle" x="387" y="-229.8" font-family="Times,serif" font-size="14.00" fill="#000000">ClientFormComponent </text>
</g>
<!-- InsuranceModule&#45;&gt;ClientFormComponent  -->
<g id="edge11" class="edge">
<title>InsuranceModule&#45;&gt;ClientFormComponent </title>
<path fill="none" stroke="#000000" stroke-dasharray="5,2" d="M501.9742,-181C446.2628,-181 369.7902,-181 369.7902,-181 369.7902,-181 369.7902,-205.7604 369.7902,-205.7604"/>
<polygon fill="#000000" stroke="#000000" points="366.2903,-205.7604 369.7902,-215.7604 373.2903,-205.7604 366.2903,-205.7604"/>
</g>
<!-- CompaniesComponent  -->
<g id="node13" class="node">
<title>CompaniesComponent </title>
<polygon fill="#fb8072" stroke="#000000" points="293.8241,-252 146.1759,-252 146.1759,-216 293.8241,-216 293.8241,-252"/>
<text text-anchor="middle" x="220" y="-229.8" font-family="Times,serif" font-size="14.00" fill="#000000">CompaniesComponent </text>
</g>
<!-- InsuranceModule&#45;&gt;CompaniesComponent  -->
<g id="edge12" class="edge">
<title>InsuranceModule&#45;&gt;CompaniesComponent </title>
<path fill="none" stroke="#000000" stroke-dasharray="5,2" d="M501.7816,-175C399.3763,-175 195.3627,-175 195.3627,-175 195.3627,-175 195.3627,-205.9775 195.3627,-205.9775"/>
<polygon fill="#000000" stroke="#000000" points="191.8628,-205.9774 195.3627,-215.9775 198.8628,-205.9775 191.8628,-205.9774"/>
</g>
<!-- InsuranceRoutingModule -->
<g id="node7" class="node">
<title>InsuranceRoutingModule</title>
<polygon fill="#8dd3c7" stroke="#000000" points="299.5772,-122 296.5772,-126 275.5772,-126 272.5772,-122 140.4228,-122 140.4228,-86 299.5772,-86 299.5772,-122"/>
<text text-anchor="middle" x="220" y="-99.8" font-family="Times,serif" font-size="14.00" fill="#000000">InsuranceRoutingModule</text>
</g>
<!-- InsuranceRoutingModule&#45;&gt;InsuranceModule -->
<g id="edge6" class="edge">
<title>InsuranceRoutingModule&#45;&gt;InsuranceModule</title>
<path fill="none" stroke="#000000" d="M244.6373,-122.0225C244.6373,-139.3734 244.6373,-163 244.6373,-163 244.6373,-163 491.7066,-163 491.7066,-163"/>
<polygon fill="#000000" stroke="#000000" points="491.7066,-166.5001 501.7066,-163 491.7065,-159.5001 491.7066,-166.5001"/>
</g>
<!-- SharedModule -->
<g id="node8" class="node">
<title>SharedModule</title>
<polygon fill="#8dd3c7" stroke="#000000" points="122.4231,-122 119.4231,-126 98.4231,-126 95.4231,-122 23.5769,-122 23.5769,-86 122.4231,-86 122.4231,-122"/>
<text text-anchor="middle" x="73" y="-99.8" font-family="Times,serif" font-size="14.00" fill="#000000">SharedModule</text>
</g>
<!-- SharedModule&#45;&gt;InsuranceModule -->
<g id="edge7" class="edge">
<title>SharedModule&#45;&gt;InsuranceModule</title>
<path fill="none" stroke="#000000" d="M73,-122.1061C73,-141.3391 73,-169 73,-169 73,-169 491.8205,-169 491.8205,-169"/>
<polygon fill="#000000" stroke="#000000" points="491.8205,-172.5001 501.8205,-169 491.8205,-165.5001 491.8205,-172.5001"/>
</g>
</g>
</svg>
