<?xml version="1.0" encoding="UTF-8" standalone="no"?>
<!DOCTYPE svg PUBLIC "-//W3C//DTD SVG 1.1//EN"
 "http://www.w3.org/Graphics/SVG/1.1/DTD/svg11.dtd">
<!-- Generated by graphviz version 2.40.1 (20161225.0304)
 -->
<!-- Title: dependencies Pages: 1 -->
<svg width="504pt" height="284pt"
 viewBox="0.00 0.00 504.00 284.00" xmlns="http://www.w3.org/2000/svg" xmlns:xlink="http://www.w3.org/1999/xlink">
<g id="graph0" class="graph" transform="scale(1 1) rotate(0) translate(4 280)">
<title>dependencies</title>
<polygon fill="#ffffff" stroke="transparent" points="-4,4 -4,-280 500,-280 500,4 -4,4"/>
<text text-anchor="start" x="227.0091" y="-42.4" font-family="sans-serif" font-weight="bold" font-size="14.00" fill="#000000">Legend</text>
<polygon fill="#ffffb3" stroke="transparent" points="14,-10 14,-30 34,-30 34,-10 14,-10"/>
<text text-anchor="start" x="37.629" y="-15.4" font-family="sans-serif" font-size="14.00" fill="#000000"> &#160;Declarations</text>
<polygon fill="#8dd3c7" stroke="transparent" points="127,-10 127,-30 147,-30 147,-10 127,-10"/>
<text text-anchor="start" x="150.7251" y="-15.4" font-family="sans-serif" font-size="14.00" fill="#000000"> &#160;Module</text>
<polygon fill="#80b1d3" stroke="transparent" points="213,-10 213,-30 233,-30 233,-10 213,-10"/>
<text text-anchor="start" x="236.7812" y="-15.4" font-family="sans-serif" font-size="14.00" fill="#000000"> &#160;Bootstrap</text>
<polygon fill="#fdb462" stroke="transparent" points="310,-10 310,-30 330,-30 330,-10 310,-10"/>
<text text-anchor="start" x="333.6732" y="-15.4" font-family="sans-serif" font-size="14.00" fill="#000000"> &#160;Providers</text>
<polygon fill="#fb8072" stroke="transparent" points="406,-10 406,-30 426,-30 426,-10 406,-10"/>
<text text-anchor="start" x="429.7258" y="-15.4" font-family="sans-serif" font-size="14.00" fill="#000000"> &#160;Exports</text>
<g id="clust1" class="cluster">
<title>cluster_SharedModule</title>
<polygon fill="none" stroke="#000000" stroke-dasharray="1,5" points="26.5,-70 26.5,-268 469.5,-268 469.5,-70 26.5,-70"/>
</g>
<g id="clust2" class="cluster">
<title>cluster_SharedModule_declarations</title>
<polygon fill="none" stroke="#000000" points="34.5,-78 34.5,-130 450.5,-130 450.5,-78 34.5,-78"/>
</g>
<g id="clust7" class="cluster">
<title>cluster_SharedModule_exports</title>
<polygon fill="none" stroke="#000000" points="34.5,-208 34.5,-260 461.5,-260 461.5,-208 34.5,-208"/>
</g>
<!-- FooterComponent -->
<g id="node1" class="node">
<title>FooterComponent</title>
<polygon fill="#ffffb3" stroke="#000000" points="442.3809,-122 324.6191,-122 324.6191,-86 442.3809,-86 442.3809,-122"/>
<text text-anchor="middle" x="383.5" y="-99.8" font-family="Times,serif" font-size="14.00" fill="#000000">FooterComponent</text>
</g>
<!-- SharedModule -->
<g id="node4" class="node">
<title>SharedModule</title>
<polygon fill="#8dd3c7" stroke="#000000" points="294.9231,-187 291.9231,-191 270.9231,-191 267.9231,-187 196.0769,-187 196.0769,-151 294.9231,-151 294.9231,-187"/>
<text text-anchor="middle" x="245.5" y="-164.8" font-family="Times,serif" font-size="14.00" fill="#000000">SharedModule</text>
</g>
<!-- FooterComponent&#45;&gt;SharedModule -->
<g id="edge1" class="edge">
<title>FooterComponent&#45;&gt;SharedModule</title>
<path fill="none" stroke="#000000" d="M404.1221,-122.0225C404.1221,-139.3734 404.1221,-163 404.1221,-163 404.1221,-163 304.8195,-163 304.8195,-163"/>
<polygon fill="#000000" stroke="#000000" points="304.8196,-159.5001 294.8195,-163 304.8195,-166.5001 304.8196,-159.5001"/>
</g>
<!-- NavbarComponent -->
<g id="node2" class="node">
<title>NavbarComponent</title>
<polygon fill="#ffffb3" stroke="#000000" points="306.5297,-122 184.4703,-122 184.4703,-86 306.5297,-86 306.5297,-122"/>
<text text-anchor="middle" x="245.5" y="-99.8" font-family="Times,serif" font-size="14.00" fill="#000000">NavbarComponent</text>
</g>
<!-- NavbarComponent&#45;&gt;SharedModule -->
<g id="edge2" class="edge">
<title>NavbarComponent&#45;&gt;SharedModule</title>
<path fill="none" stroke="#000000" d="M245.5,-122.1061C245.5,-122.1061 245.5,-140.991 245.5,-140.991"/>
<polygon fill="#000000" stroke="#000000" points="242.0001,-140.9909 245.5,-150.991 249.0001,-140.991 242.0001,-140.9909"/>
</g>
<!-- SidebarComponent -->
<g id="node3" class="node">
<title>SidebarComponent</title>
<polygon fill="#ffffb3" stroke="#000000" points="166.5954,-122 42.4046,-122 42.4046,-86 166.5954,-86 166.5954,-122"/>
<text text-anchor="middle" x="104.5" y="-99.8" font-family="Times,serif" font-size="14.00" fill="#000000">SidebarComponent</text>
</g>
<!-- SidebarComponent&#45;&gt;SharedModule -->
<g id="edge3" class="edge">
<title>SidebarComponent&#45;&gt;SharedModule</title>
<path fill="none" stroke="#000000" d="M123.7301,-122.0225C123.7301,-139.3734 123.7301,-163 123.7301,-163 123.7301,-163 185.9715,-163 185.9715,-163"/>
<polygon fill="#000000" stroke="#000000" points="185.9716,-166.5001 195.9715,-163 185.9715,-159.5001 185.9716,-166.5001"/>
</g>
<!-- NavbarComponent  -->
<g id="node5" class="node">
<title>NavbarComponent </title>
<polygon fill="#fb8072" stroke="#000000" points="453.5288,-252 327.4712,-252 327.4712,-216 453.5288,-216 453.5288,-252"/>
<text text-anchor="middle" x="390.5" y="-229.8" font-family="Times,serif" font-size="14.00" fill="#000000">NavbarComponent </text>
</g>
<!-- SharedModule&#45;&gt;NavbarComponent  -->
<g id="edge4" class="edge">
<title>SharedModule&#45;&gt;NavbarComponent </title>
<path fill="none" stroke="#000000" stroke-dasharray="5,2" d="M294.7793,-175C328.0029,-175 365.8039,-175 365.8039,-175 365.8039,-175 365.8039,-205.9775 365.8039,-205.9775"/>
<polygon fill="#000000" stroke="#000000" points="362.304,-205.9774 365.8039,-215.9775 369.304,-205.9775 362.304,-205.9774"/>
</g>
<!-- SidebarComponent  -->
<g id="node6" class="node">
<title>SidebarComponent </title>
<polygon fill="#fb8072" stroke="#000000" points="309.096,-252 181.904,-252 181.904,-216 309.096,-216 309.096,-252"/>
<text text-anchor="middle" x="245.5" y="-229.8" font-family="Times,serif" font-size="14.00" fill="#000000">SidebarComponent </text>
</g>
<!-- SharedModule&#45;&gt;SidebarComponent  -->
<g id="edge5" class="edge">
<title>SharedModule&#45;&gt;SidebarComponent </title>
<path fill="none" stroke="#000000" stroke-dasharray="5,2" d="M245.5,-187.1061C245.5,-187.1061 245.5,-205.991 245.5,-205.991"/>
<polygon fill="#000000" stroke="#000000" points="242.0001,-205.9909 245.5,-215.991 249.0001,-205.991 242.0001,-205.9909"/>
</g>
<!-- FooterComponent  -->
<g id="node7" class="node">
<title>FooterComponent </title>
<polygon fill="#fb8072" stroke="#000000" points="164.3814,-252 42.6186,-252 42.6186,-216 164.3814,-216 164.3814,-252"/>
<text text-anchor="middle" x="103.5" y="-229.8" font-family="Times,serif" font-size="14.00" fill="#000000">FooterComponent </text>
</g>
<!-- SharedModule&#45;&gt;FooterComponent  -->
<g id="edge6" class="edge">
<title>SharedModule&#45;&gt;FooterComponent </title>
<path fill="none" stroke="#000000" stroke-dasharray="5,2" d="M195.9441,-175C148.2352,-175 83.2699,-175 83.2699,-175 83.2699,-175 83.2699,-205.9775 83.2699,-205.9775"/>
<polygon fill="#000000" stroke="#000000" points="79.77,-205.9774 83.2699,-215.9775 86.77,-205.9775 79.77,-205.9774"/>
</g>
</g>
</svg>
