<?xml version="1.0" encoding="UTF-8" standalone="no"?>
<!DOCTYPE svg PUBLIC "-//W3C//DTD SVG 1.1//EN"
 "http://www.w3.org/Graphics/SVG/1.1/DTD/svg11.dtd">
<!-- Generated by graphviz version 2.40.1 (20161225.0304)
 -->
<!-- Title: dependencies Pages: 1 -->
<svg width="802pt" height="211pt"
 viewBox="0.00 0.00 802.00 211.00" xmlns="http://www.w3.org/2000/svg" xmlns:xlink="http://www.w3.org/1999/xlink">
<g id="graph0" class="graph" transform="scale(1 1) rotate(0) translate(4 207)">
<title>dependencies</title>
<polygon fill="#ffffff" stroke="transparent" points="-4,4 -4,-207 798,-207 798,4 -4,4"/>
<text text-anchor="start" x="376.0091" y="-42.4" font-family="sans-serif" font-weight="bold" font-size="14.00" fill="#000000">Legend</text>
<polygon fill="#ffffb3" stroke="transparent" points="163,-10 163,-30 183,-30 183,-10 163,-10"/>
<text text-anchor="start" x="186.629" y="-15.4" font-family="sans-serif" font-size="14.00" fill="#000000"> &#160;Declarations</text>
<polygon fill="#8dd3c7" stroke="transparent" points="276,-10 276,-30 296,-30 296,-10 276,-10"/>
<text text-anchor="start" x="299.7251" y="-15.4" font-family="sans-serif" font-size="14.00" fill="#000000"> &#160;Module</text>
<polygon fill="#80b1d3" stroke="transparent" points="362,-10 362,-30 382,-30 382,-10 362,-10"/>
<text text-anchor="start" x="385.7812" y="-15.4" font-family="sans-serif" font-size="14.00" fill="#000000"> &#160;Bootstrap</text>
<polygon fill="#fdb462" stroke="transparent" points="459,-10 459,-30 479,-30 479,-10 459,-10"/>
<text text-anchor="start" x="482.6732" y="-15.4" font-family="sans-serif" font-size="14.00" fill="#000000"> &#160;Providers</text>
<polygon fill="#fb8072" stroke="transparent" points="555,-10 555,-30 575,-30 575,-10 555,-10"/>
<text text-anchor="start" x="578.7258" y="-15.4" font-family="sans-serif" font-size="14.00" fill="#000000"> &#160;Exports</text>
<g id="clust1" class="cluster">
<title>cluster_UserModule</title>
<polygon fill="none" stroke="#000000" stroke-dasharray="1,5" points="8,-70 8,-195 786,-195 786,-70 8,-70"/>
</g>
<g id="clust2" class="cluster">
<title>cluster_UserModule_declarations</title>
<polygon fill="none" stroke="#000000" points="162,-78 162,-130 778,-130 778,-78 162,-78"/>
</g>
<g id="clust10" class="cluster">
<title>cluster_UserModule_providers</title>
<polygon fill="none" stroke="#000000" points="16,-78 16,-130 154,-130 154,-78 16,-78"/>
</g>
<!-- UserComponent -->
<g id="node1" class="node">
<title>UserComponent</title>
<polygon fill="#ffffb3" stroke="#000000" points="769.7591,-122 662.2409,-122 662.2409,-86 769.7591,-86 769.7591,-122"/>
<text text-anchor="middle" x="716" y="-99.8" font-family="Times,serif" font-size="14.00" fill="#000000">UserComponent</text>
</g>
<!-- UserModule -->
<g id="node5" class="node">
<title>UserModule</title>
<polygon fill="#8dd3c7" stroke="#000000" points="438.9762,-187 435.9762,-191 414.9762,-191 411.9762,-187 353.0238,-187 353.0238,-151 438.9762,-151 438.9762,-187"/>
<text text-anchor="middle" x="396" y="-164.8" font-family="Times,serif" font-size="14.00" fill="#000000">UserModule</text>
</g>
<!-- UserComponent&#45;&gt;UserModule -->
<g id="edge1" class="edge">
<title>UserComponent&#45;&gt;UserModule</title>
<path fill="none" stroke="#000000" d="M716,-122.2843C716,-143.3211 716,-175 716,-175 716,-175 449.1566,-175 449.1566,-175"/>
<polygon fill="#000000" stroke="#000000" points="449.1567,-171.5001 439.1566,-175 449.1566,-178.5001 449.1567,-171.5001"/>
</g>
<!-- UserProfileComponent -->
<g id="node2" class="node">
<title>UserProfileComponent</title>
<polygon fill="#ffffb3" stroke="#000000" points="643.8585,-122 498.1415,-122 498.1415,-86 643.8585,-86 643.8585,-122"/>
<text text-anchor="middle" x="571" y="-99.8" font-family="Times,serif" font-size="14.00" fill="#000000">UserProfileComponent</text>
</g>
<!-- UserProfileComponent&#45;&gt;UserModule -->
<g id="edge2" class="edge">
<title>UserProfileComponent&#45;&gt;UserModule</title>
<path fill="none" stroke="#000000" d="M571,-122.0225C571,-139.3734 571,-163 571,-163 571,-163 449.2584,-163 449.2584,-163"/>
<polygon fill="#000000" stroke="#000000" points="449.2585,-159.5001 439.2584,-163 449.2584,-166.5001 449.2585,-159.5001"/>
</g>
<!-- UserInsurancesComponent -->
<g id="node3" class="node">
<title>UserInsurancesComponent</title>
<polygon fill="#ffffb3" stroke="#000000" points="479.6134,-122 312.3866,-122 312.3866,-86 479.6134,-86 479.6134,-122"/>
<text text-anchor="middle" x="396" y="-99.8" font-family="Times,serif" font-size="14.00" fill="#000000">UserInsurancesComponent</text>
</g>
<!-- UserInsurancesComponent&#45;&gt;UserModule -->
<g id="edge3" class="edge">
<title>UserInsurancesComponent&#45;&gt;UserModule</title>
<path fill="none" stroke="#000000" d="M396,-122.1061C396,-122.1061 396,-140.991 396,-140.991"/>
<polygon fill="#000000" stroke="#000000" points="392.5001,-140.9909 396,-150.991 399.5001,-140.991 392.5001,-140.9909"/>
</g>
<!-- InsuranceTypePipe -->
<g id="node4" class="node">
<title>InsuranceTypePipe</title>
<polygon fill="#ffffb3" stroke="#000000" points="294.0646,-122 169.9354,-122 169.9354,-86 294.0646,-86 294.0646,-122"/>
<text text-anchor="middle" x="232" y="-99.8" font-family="Times,serif" font-size="14.00" fill="#000000">InsuranceTypePipe</text>
</g>
<!-- InsuranceTypePipe&#45;&gt;UserModule -->
<g id="edge4" class="edge">
<title>InsuranceTypePipe&#45;&gt;UserModule</title>
<path fill="none" stroke="#000000" d="M232,-122.0225C232,-139.3734 232,-163 232,-163 232,-163 342.9109,-163 342.9109,-163"/>
<polygon fill="#000000" stroke="#000000" points="342.911,-166.5001 352.9109,-163 342.9109,-159.5001 342.911,-166.5001"/>
</g>
<!-- ProfileGuard -->
<g id="node6" class="node">
<title>ProfileGuard</title>
<ellipse fill="#fdb462" stroke="#000000" cx="85" cy="-104" rx="61.3935" ry="18"/>
<text text-anchor="middle" x="85" y="-99.8" font-family="Times,serif" font-size="14.00" fill="#000000">ProfileGuard</text>
</g>
<!-- ProfileGuard&#45;&gt;UserModule -->
<g id="edge5" class="edge">
<title>ProfileGuard&#45;&gt;UserModule</title>
<path fill="none" stroke="#000000" d="M85,-122.2843C85,-143.3211 85,-175 85,-175 85,-175 342.7568,-175 342.7568,-175"/>
<polygon fill="#000000" stroke="#000000" points="342.7568,-178.5001 352.7568,-175 342.7567,-171.5001 342.7568,-178.5001"/>
</g>
</g>
</svg>
