<?xml version="1.0" encoding="UTF-8" standalone="no"?>
<!DOCTYPE svg PUBLIC "-//W3C//DTD SVG 1.1//EN"
 "http://www.w3.org/Graphics/SVG/1.1/DTD/svg11.dtd">
<!-- Generated by graphviz version 2.40.1 (20161225.0304)
 -->
<!-- Title: dependencies Pages: 1 -->
<svg width="6364pt" height="436pt"
 viewBox="0.00 0.00 6364.00 436.00" xmlns="http://www.w3.org/2000/svg" xmlns:xlink="http://www.w3.org/1999/xlink">
<g id="graph0" class="graph" transform="scale(1 1) rotate(0) translate(4 432)">
<title>dependencies</title>
<polygon fill="#ffffff" stroke="transparent" points="-4,4 -4,-432 6360,-432 6360,4 -4,4"/>
<text text-anchor="start" x="3157.0091" y="-42.4" font-family="sans-serif" font-weight="bold" font-size="14.00" fill="#000000">Legend</text>
<polygon fill="#ffffb3" stroke="transparent" points="2944,-10 2944,-30 2964,-30 2964,-10 2944,-10"/>
<text text-anchor="start" x="2967.629" y="-15.4" font-family="sans-serif" font-size="14.00" fill="#000000"> &#160;Declarations</text>
<polygon fill="#8dd3c7" stroke="transparent" points="3057,-10 3057,-30 3077,-30 3077,-10 3057,-10"/>
<text text-anchor="start" x="3080.7251" y="-15.4" font-family="sans-serif" font-size="14.00" fill="#000000"> &#160;Module</text>
<polygon fill="#80b1d3" stroke="transparent" points="3143,-10 3143,-30 3163,-30 3163,-10 3143,-10"/>
<text text-anchor="start" x="3166.7812" y="-15.4" font-family="sans-serif" font-size="14.00" fill="#000000"> &#160;Bootstrap</text>
<polygon fill="#fdb462" stroke="transparent" points="3240,-10 3240,-30 3260,-30 3260,-10 3240,-10"/>
<text text-anchor="start" x="3263.6732" y="-15.4" font-family="sans-serif" font-size="14.00" fill="#000000"> &#160;Providers</text>
<polygon fill="#fb8072" stroke="transparent" points="3336,-10 3336,-30 3356,-30 3356,-10 3336,-10"/>
<text text-anchor="start" x="3359.7258" y="-15.4" font-family="sans-serif" font-size="14.00" fill="#000000"> &#160;Exports</text>
<g id="clust1" class="cluster">
<title>cluster_AppModule</title>
<polygon fill="none" stroke="#000000" stroke-dasharray="1,5" points="2544,-146 2544,-420 5473,-420 5473,-146 2544,-146"/>
</g>
<g id="clust2" class="cluster">
<title>cluster_AppModule_declarations</title>
<polygon fill="none" stroke="#000000" points="4545,-230 4545,-282 5465,-282 5465,-230 4545,-230"/>
</g>
<g id="clust9" class="cluster">
<title>cluster_AppModule_imports</title>
<polygon fill="none" stroke="#000000" points="4066,-154 4066,-282 4537,-282 4537,-154 4066,-154"/>
</g>
<g id="clust11" class="cluster">
<title>cluster_AppModule_bootstrap</title>
<polygon fill="none" stroke="#000000" points="4193,-360 4193,-412 4317,-412 4317,-360 4193,-360"/>
</g>
<g id="clust12" class="cluster">
<title>cluster_AppModule_providers</title>
<polygon fill="none" stroke="#000000" points="2552,-230 2552,-282 4058,-282 4058,-230 2552,-230"/>
</g>
<g id="clust19" class="cluster">
<title>cluster_AuthModule</title>
<polygon fill="none" stroke="#000000" stroke-dasharray="1,5" points="3651,-70 3651,-138 4064,-138 4064,-70 3651,-70"/>
</g>
<g id="clust20" class="cluster">
<title>cluster_AuthModule_declarations</title>
<polygon fill="none" stroke="#000000" points="3659,-78 3659,-130 4056,-130 4056,-78 3659,-78"/>
</g>
<g id="clust28" class="cluster">
<title>cluster_InsuranceModule</title>
<polygon fill="none" stroke="#000000" stroke-dasharray="1,5" points="8,-146 8,-214 1952,-214 1952,-146 8,-146"/>
</g>
<g id="clust29" class="cluster">
<title>cluster_InsuranceModule_declarations</title>
<polygon fill="none" stroke="#000000" points="1084,-154 1084,-206 1944,-206 1944,-154 1084,-154"/>
</g>
<g id="clust35" class="cluster">
<title>cluster_InsuranceModule_imports</title>
<polygon fill="none" stroke="#000000" points="900,-154 900,-206 1076,-206 1076,-154 900,-154"/>
</g>
<g id="clust36" class="cluster">
<title>cluster_InsuranceModule_exports</title>
<polygon fill="none" stroke="#000000" points="16,-154 16,-206 892,-206 892,-154 16,-154"/>
</g>
<g id="clust45" class="cluster">
<title>cluster_OnlineModule</title>
<polygon fill="none" stroke="#000000" stroke-dasharray="1,5" points="1960,-146 1960,-214 2536,-214 2536,-146 1960,-146"/>
</g>
<g id="clust46" class="cluster">
<title>cluster_OnlineModule_declarations</title>
<polygon fill="none" stroke="#000000" points="2336,-154 2336,-206 2528,-206 2528,-154 2336,-154"/>
</g>
<g id="clust48" class="cluster">
<title>cluster_OnlineModule_imports</title>
<polygon fill="none" stroke="#000000" points="2170,-154 2170,-206 2328,-206 2328,-154 2170,-154"/>
</g>
<g id="clust49" class="cluster">
<title>cluster_OnlineModule_exports</title>
<polygon fill="none" stroke="#000000" points="1968,-154 1968,-206 2162,-206 2162,-154 1968,-154"/>
</g>
<g id="clust58" class="cluster">
<title>cluster_SharedModule</title>
<polygon fill="none" stroke="#000000" stroke-dasharray="1,5" points="5481,-222 5481,-290 6348,-290 6348,-222 5481,-222"/>
</g>
<g id="clust59" class="cluster">
<title>cluster_SharedModule_declarations</title>
<polygon fill="none" stroke="#000000" points="5924,-230 5924,-282 6340,-282 6340,-230 5924,-230"/>
</g>
<g id="clust64" class="cluster">
<title>cluster_SharedModule_exports</title>
<polygon fill="none" stroke="#000000" points="5489,-230 5489,-282 5916,-282 5916,-230 5489,-230"/>
</g>
<g id="clust67" class="cluster">
<title>cluster_UserModule</title>
<polygon fill="none" stroke="#000000" stroke-dasharray="1,5" points="4072,-70 4072,-138 4850,-138 4850,-70 4072,-70"/>
</g>
<g id="clust68" class="cluster">
<title>cluster_UserModule_declarations</title>
<polygon fill="none" stroke="#000000" points="4226,-78 4226,-130 4842,-130 4842,-78 4226,-78"/>
</g>
<g id="clust76" class="cluster">
<title>cluster_UserModule_providers</title>
<polygon fill="none" stroke="#000000" points="4080,-78 4080,-130 4218,-130 4218,-78 4080,-78"/>
</g>
<!-- AppComponent -->
<g id="node1" class="node">
<title>AppComponent</title>
<polygon fill="#ffffb3" stroke="#000000" points="5456.9399,-274 5351.0601,-274 5351.0601,-238 5456.9399,-238 5456.9399,-274"/>
<text text-anchor="middle" x="5404" y="-251.8" font-family="Times,serif" font-size="14.00" fill="#000000">AppComponent</text>
</g>
<!-- AppModule -->
<g id="node7" class="node">
<title>AppModule</title>
<polygon fill="#8dd3c7" stroke="#000000" points="4296.6571,-339 4293.6571,-343 4272.6571,-343 4269.6571,-339 4213.3429,-339 4213.3429,-303 4296.6571,-303 4296.6571,-339"/>
<text text-anchor="middle" x="4255" y="-316.8" font-family="Times,serif" font-size="14.00" fill="#000000">AppModule</text>
</g>
<!-- AppComponent&#45;&gt;AppModule -->
<g id="edge1" class="edge">
<title>AppComponent&#45;&gt;AppModule</title>
<path fill="none" stroke="#000000" d="M5404,-274.3228C5404,-297.6602 5404,-335 5404,-335 5404,-335 4306.9136,-335 4306.9136,-335"/>
<polygon fill="#000000" stroke="#000000" points="4306.9137,-331.5001 4296.9136,-335 4306.9136,-338.5001 4306.9137,-331.5001"/>
</g>
<!-- HomeComponent -->
<g id="node2" class="node">
<title>HomeComponent</title>
<polygon fill="#ffffb3" stroke="#000000" points="5333.5451,-274 5218.4549,-274 5218.4549,-238 5333.5451,-238 5333.5451,-274"/>
<text text-anchor="middle" x="5276" y="-251.8" font-family="Times,serif" font-size="14.00" fill="#000000">HomeComponent</text>
</g>
<!-- HomeComponent&#45;&gt;AppModule -->
<g id="edge2" class="edge">
<title>HomeComponent&#45;&gt;AppModule</title>
<path fill="none" stroke="#000000" d="M5276,-274.1554C5276,-296.3519 5276,-331 5276,-331 5276,-331 4306.9279,-331 4306.9279,-331"/>
<polygon fill="#000000" stroke="#000000" points="4306.9279,-327.5001 4296.9279,-331 4306.9278,-334.5001 4306.9279,-327.5001"/>
</g>
<!-- AboutComponent -->
<g id="node3" class="node">
<title>AboutComponent</title>
<polygon fill="#ffffb3" stroke="#000000" points="5200.3301,-274 5083.6699,-274 5083.6699,-238 5200.3301,-238 5200.3301,-274"/>
<text text-anchor="middle" x="5142" y="-251.8" font-family="Times,serif" font-size="14.00" fill="#000000">AboutComponent</text>
</g>
<!-- AboutComponent&#45;&gt;AppModule -->
<g id="edge3" class="edge">
<title>AboutComponent&#45;&gt;AppModule</title>
<path fill="none" stroke="#000000" d="M5142,-274.2843C5142,-295.3211 5142,-327 5142,-327 5142,-327 4306.8882,-327 4306.8882,-327"/>
<polygon fill="#000000" stroke="#000000" points="4306.8882,-323.5001 4296.8882,-327 4306.8881,-330.5001 4306.8882,-323.5001"/>
</g>
<!-- CarouselComponent -->
<g id="node4" class="node">
<title>CarouselComponent</title>
<polygon fill="#ffffb3" stroke="#000000" points="5065.594,-274 4934.406,-274 4934.406,-238 5065.594,-238 5065.594,-274"/>
<text text-anchor="middle" x="5000" y="-251.8" font-family="Times,serif" font-size="14.00" fill="#000000">CarouselComponent</text>
</g>
<!-- CarouselComponent&#45;&gt;AppModule -->
<g id="edge4" class="edge">
<title>CarouselComponent&#45;&gt;AppModule</title>
<path fill="none" stroke="#000000" d="M5000,-274.308C5000,-294.1455 5000,-323 5000,-323 5000,-323 4306.9195,-323 4306.9195,-323"/>
<polygon fill="#000000" stroke="#000000" points="4306.9196,-319.5001 4296.9195,-323 4306.9195,-326.5001 4306.9196,-319.5001"/>
</g>
<!-- AdminPaneComponent -->
<g id="node5" class="node">
<title>AdminPaneComponent</title>
<polygon fill="#ffffb3" stroke="#000000" points="4916.9326,-274 4769.0674,-274 4769.0674,-238 4916.9326,-238 4916.9326,-274"/>
<text text-anchor="middle" x="4843" y="-251.8" font-family="Times,serif" font-size="14.00" fill="#000000">AdminPaneComponent</text>
</g>
<!-- AdminPaneComponent&#45;&gt;AppModule -->
<g id="edge5" class="edge">
<title>AdminPaneComponent&#45;&gt;AppModule</title>
<path fill="none" stroke="#000000" d="M4843,-274.2222C4843,-292.8285 4843,-319 4843,-319 4843,-319 4306.8161,-319 4306.8161,-319"/>
<polygon fill="#000000" stroke="#000000" points="4306.8162,-315.5001 4296.8161,-319 4306.8161,-322.5001 4306.8162,-315.5001"/>
</g>
<!-- AdminSearchDetailsComponent -->
<g id="node6" class="node">
<title>AdminSearchDetailsComponent</title>
<polygon fill="#ffffb3" stroke="#000000" points="4750.9594,-274 4553.0406,-274 4553.0406,-238 4750.9594,-238 4750.9594,-274"/>
<text text-anchor="middle" x="4652" y="-251.8" font-family="Times,serif" font-size="14.00" fill="#000000">AdminSearchDetailsComponent</text>
</g>
<!-- AdminSearchDetailsComponent&#45;&gt;AppModule -->
<g id="edge6" class="edge">
<title>AdminSearchDetailsComponent&#45;&gt;AppModule</title>
<path fill="none" stroke="#000000" d="M4652,-274.0225C4652,-291.3734 4652,-315 4652,-315 4652,-315 4306.7356,-315 4306.7356,-315"/>
<polygon fill="#000000" stroke="#000000" points="4306.7356,-311.5001 4296.7356,-315 4306.7356,-318.5001 4306.7356,-311.5001"/>
</g>
<!-- AppComponent  -->
<g id="node14" class="node">
<title>AppComponent </title>
<polygon fill="#80b1d3" stroke="#000000" points="4309.439,-404 4200.561,-404 4200.561,-368 4309.439,-368 4309.439,-404"/>
<text text-anchor="middle" x="4255" y="-381.8" font-family="Times,serif" font-size="14.00" fill="#000000">AppComponent </text>
</g>
<!-- AppModule&#45;&gt;AppComponent  -->
<g id="edge13" class="edge">
<title>AppModule&#45;&gt;AppComponent </title>
<path fill="none" stroke="#000000" stroke-dasharray="1,5" d="M4255,-339.1061C4255,-339.1061 4255,-357.991 4255,-357.991"/>
<polygon fill="#000000" stroke="#000000" points="4251.5001,-357.9909 4255,-367.991 4258.5001,-357.991 4251.5001,-357.9909"/>
</g>
<!-- SharedModule -->
<g id="node8" class="node">
<title>SharedModule</title>
<polygon fill="#8dd3c7" stroke="#000000" points="4529.4231,-198 4526.4231,-202 4505.4231,-202 4502.4231,-198 4430.5769,-198 4430.5769,-162 4529.4231,-162 4529.4231,-198"/>
<text text-anchor="middle" x="4480" y="-175.8" font-family="Times,serif" font-size="14.00" fill="#000000">SharedModule</text>
</g>
<!-- SharedModule&#45;&gt;AppModule -->
<g id="edge7" class="edge">
<title>SharedModule&#45;&gt;AppModule</title>
<path fill="none" stroke="#000000" d="M4504.6056,-198.215C4504.6056,-234.2102 4504.6056,-311 4504.6056,-311 4504.6056,-311 4306.7784,-311 4306.7784,-311"/>
<polygon fill="#000000" stroke="#000000" points="4306.7784,-307.5001 4296.7784,-311 4306.7783,-314.5001 4306.7784,-307.5001"/>
</g>
<!-- InsuranceModule -->
<g id="node12" class="node">
<title>InsuranceModule</title>
<polygon fill="#8dd3c7" stroke="#000000" points="4187.9594,-274 4184.9594,-278 4163.9594,-278 4160.9594,-274 4074.0406,-274 4074.0406,-238 4187.9594,-238 4187.9594,-274"/>
<text text-anchor="middle" x="4131" y="-251.8" font-family="Times,serif" font-size="14.00" fill="#000000">InsuranceModule</text>
</g>
<!-- SharedModule&#45;&gt;InsuranceModule -->
<g id="edge32" class="edge">
<title>SharedModule&#45;&gt;InsuranceModule</title>
<path fill="none" stroke="#000000" d="M4455.3945,-198.027C4455.3945,-214.3976 4455.3945,-236 4455.3945,-236 4455.3945,-236 4183.9958,-236 4183.9958,-236 4183.9958,-236 4183.9958,-236.1846 4183.9958,-236.1846"/>
<polygon fill="#000000" stroke="#000000" points="4180.4964,-227.8455 4183.9958,-237.8457 4187.4964,-227.8459 4180.4964,-227.8455"/>
</g>
<!-- OnlineModule -->
<g id="node13" class="node">
<title>OnlineModule</title>
<polygon fill="#8dd3c7" stroke="#000000" points="4303.6528,-274 4300.6528,-278 4279.6528,-278 4276.6528,-274 4206.3472,-274 4206.3472,-238 4303.6528,-238 4303.6528,-274"/>
<text text-anchor="middle" x="4255" y="-251.8" font-family="Times,serif" font-size="14.00" fill="#000000">OnlineModule</text>
</g>
<!-- SharedModule&#45;&gt;OnlineModule -->
<g id="edge40" class="edge">
<title>SharedModule&#45;&gt;OnlineModule</title>
<path fill="none" stroke="#000000" d="M4480,-198.0109C4480,-220.4852 4480,-256 4480,-256 4480,-256 4313.8216,-256 4313.8216,-256"/>
<polygon fill="#000000" stroke="#000000" points="4313.8217,-252.5001 4303.8216,-256 4313.8216,-259.5001 4313.8217,-252.5001"/>
</g>
<!-- NavbarComponent  -->
<g id="node44" class="node">
<title>NavbarComponent </title>
<polygon fill="#fb8072" stroke="#000000" points="5908.0288,-274 5781.9712,-274 5781.9712,-238 5908.0288,-238 5908.0288,-274"/>
<text text-anchor="middle" x="5845" y="-251.8" font-family="Times,serif" font-size="14.00" fill="#000000">NavbarComponent </text>
</g>
<!-- SharedModule&#45;&gt;NavbarComponent  -->
<g id="edge45" class="edge">
<title>SharedModule&#45;&gt;NavbarComponent </title>
<path fill="none" stroke="#000000" stroke-dasharray="5,2" d="M4529.3875,-183C4774.104,-183 5845,-183 5845,-183 5845,-183 5845,-227.9551 5845,-227.9551"/>
<polygon fill="#000000" stroke="#000000" points="5841.5001,-227.955 5845,-237.9551 5848.5001,-227.9551 5841.5001,-227.955"/>
</g>
<!-- SidebarComponent  -->
<g id="node45" class="node">
<title>SidebarComponent </title>
<polygon fill="#fb8072" stroke="#000000" points="5763.596,-274 5636.404,-274 5636.404,-238 5763.596,-238 5763.596,-274"/>
<text text-anchor="middle" x="5700" y="-251.8" font-family="Times,serif" font-size="14.00" fill="#000000">SidebarComponent </text>
</g>
<!-- SharedModule&#45;&gt;SidebarComponent  -->
<g id="edge46" class="edge">
<title>SharedModule&#45;&gt;SidebarComponent </title>
<path fill="none" stroke="#000000" stroke-dasharray="5,2" d="M4529.3365,-188C4757.579,-188 5700,-188 5700,-188 5700,-188 5700,-227.7772 5700,-227.7772"/>
<polygon fill="#000000" stroke="#000000" points="5696.5001,-227.7772 5700,-237.7772 5703.5001,-227.7773 5696.5001,-227.7772"/>
</g>
<!-- FooterComponent  -->
<g id="node46" class="node">
<title>FooterComponent </title>
<polygon fill="#fb8072" stroke="#000000" points="5618.8814,-274 5497.1186,-274 5497.1186,-238 5618.8814,-238 5618.8814,-274"/>
<text text-anchor="middle" x="5558" y="-251.8" font-family="Times,serif" font-size="14.00" fill="#000000">FooterComponent </text>
</g>
<!-- SharedModule&#45;&gt;FooterComponent  -->
<g id="edge47" class="edge">
<title>SharedModule&#45;&gt;FooterComponent </title>
<path fill="none" stroke="#000000" stroke-dasharray="5,2" d="M4529.4758,-193C4740.9257,-193 5558,-193 5558,-193 5558,-193 5558,-227.7778 5558,-227.7778"/>
<polygon fill="#000000" stroke="#000000" points="5554.5001,-227.7778 5558,-237.7778 5561.5001,-227.7778 5554.5001,-227.7778"/>
</g>
<!-- AuthModule -->
<g id="node9" class="node">
<title>AuthModule</title>
<polygon fill="#8dd3c7" stroke="#000000" points="4161.5482,-198 4158.5482,-202 4137.5482,-202 4134.5482,-198 4074.4518,-198 4074.4518,-162 4161.5482,-162 4161.5482,-198"/>
<text text-anchor="middle" x="4118" y="-175.8" font-family="Times,serif" font-size="14.00" fill="#000000">AuthModule</text>
</g>
<!-- AuthModule&#45;&gt;AppModule -->
<g id="edge8" class="edge">
<title>AuthModule&#45;&gt;AppModule</title>
<path fill="none" stroke="#000000" d="M4074.2454,-189C4067.1757,-189 4062.1203,-189 4062.1203,-189 4062.1203,-189 4062.1203,-312 4062.1203,-312 4062.1203,-312 4203.148,-312 4203.148,-312"/>
<polygon fill="#000000" stroke="#000000" points="4203.148,-315.5001 4213.148,-312 4203.1479,-308.5001 4203.148,-315.5001"/>
</g>
<!-- UserModule -->
<g id="node10" class="node">
<title>UserModule</title>
<polygon fill="#8dd3c7" stroke="#000000" points="4265.9762,-198 4262.9762,-202 4241.9762,-202 4238.9762,-198 4180.0238,-198 4180.0238,-162 4265.9762,-162 4265.9762,-198"/>
<text text-anchor="middle" x="4223" y="-175.8" font-family="Times,serif" font-size="14.00" fill="#000000">UserModule</text>
</g>
<!-- UserModule&#45;&gt;AppModule -->
<g id="edge9" class="edge">
<title>UserModule&#45;&gt;AppModule</title>
<path fill="none" stroke="#000000" d="M4194.2551,-198.0527C4194.2551,-232.8929 4194.2551,-306 4194.2551,-306 4194.2551,-306 4203.1422,-306 4203.1422,-306"/>
<polygon fill="#000000" stroke="#000000" points="4203.1422,-309.5001 4213.1422,-306 4203.1422,-302.5001 4203.1422,-309.5001"/>
</g>
<!-- AppRoutingModule -->
<g id="node11" class="node">
<title>AppRoutingModule</title>
<polygon fill="#8dd3c7" stroke="#000000" points="4412.2744,-198 4409.2744,-202 4388.2744,-202 4385.2744,-198 4283.7256,-198 4283.7256,-162 4412.2744,-162 4412.2744,-198"/>
<text text-anchor="middle" x="4348" y="-175.8" font-family="Times,serif" font-size="14.00" fill="#000000">AppRoutingModule</text>
</g>
<!-- AppRoutingModule&#45;&gt;AppModule -->
<g id="edge10" class="edge">
<title>AppRoutingModule&#45;&gt;AppModule</title>
<path fill="none" stroke="#000000" d="M4360.9283,-198.196C4360.9283,-233.3126 4360.9283,-307 4360.9283,-307 4360.9283,-307 4306.8657,-307 4306.8657,-307"/>
<polygon fill="#000000" stroke="#000000" points="4306.8657,-303.5001 4296.8657,-307 4306.8656,-310.5001 4306.8657,-303.5001"/>
</g>
<!-- InsuranceModule&#45;&gt;AppModule -->
<g id="edge11" class="edge">
<title>InsuranceModule&#45;&gt;AppModule</title>
<path fill="none" stroke="#000000" d="M4131,-274.2396C4131,-289.5706 4131,-309 4131,-309 4131,-309 4203.0193,-309 4203.0193,-309"/>
<polygon fill="#000000" stroke="#000000" points="4203.0193,-312.5001 4213.0193,-309 4203.0192,-305.5001 4203.0193,-312.5001"/>
</g>
<!-- InsuranceInfoComponent  -->
<g id="node33" class="node">
<title>InsuranceInfoComponent </title>
<polygon fill="#fb8072" stroke="#000000" points="718.0638,-198 555.9362,-198 555.9362,-162 718.0638,-162 718.0638,-198"/>
<text text-anchor="middle" x="637" y="-175.8" font-family="Times,serif" font-size="14.00" fill="#000000">InsuranceInfoComponent </text>
</g>
<!-- InsuranceModule&#45;&gt;InsuranceInfoComponent  -->
<g id="edge33" class="edge">
<title>InsuranceModule&#45;&gt;InsuranceInfoComponent </title>
<path fill="none" stroke="#000000" stroke-dasharray="5,2" d="M4103.4088,-237.8568C4103.4088,-231.5389 4103.4088,-226 4103.4088,-226 4103.4088,-226 637,-226 637,-226 637,-226 637,-208.1804 637,-208.1804"/>
<polygon fill="#000000" stroke="#000000" points="640.5001,-208.1804 637,-198.1804 633.5001,-208.1805 640.5001,-208.1804"/>
</g>
<!-- InsuranceFormComponent  -->
<g id="node34" class="node">
<title>InsuranceFormComponent </title>
<polygon fill="#fb8072" stroke="#000000" points="537.5763,-198 368.4237,-198 368.4237,-162 537.5763,-162 537.5763,-198"/>
<text text-anchor="middle" x="453" y="-175.8" font-family="Times,serif" font-size="14.00" fill="#000000">InsuranceFormComponent </text>
</g>
<!-- InsuranceModule&#45;&gt;InsuranceFormComponent  -->
<g id="edge34" class="edge">
<title>InsuranceModule&#45;&gt;InsuranceFormComponent </title>
<path fill="none" stroke="#000000" stroke-dasharray="5,2" d="M4096.1133,-237.793C4096.1133,-232.4451 4096.1133,-228 4096.1133,-228 4096.1133,-228 453,-228 453,-228 453,-228 453,-208.1467 453,-208.1467"/>
<polygon fill="#000000" stroke="#000000" points="456.5001,-208.1467 453,-198.1467 449.5001,-208.1468 456.5001,-208.1467"/>
</g>
<!-- VehicleFormComponent  -->
<g id="node35" class="node">
<title>VehicleFormComponent </title>
<polygon fill="#fb8072" stroke="#000000" points="350.1981,-198 191.8019,-198 191.8019,-162 350.1981,-162 350.1981,-198"/>
<text text-anchor="middle" x="271" y="-175.8" font-family="Times,serif" font-size="14.00" fill="#000000">VehicleFormComponent </text>
</g>
<!-- InsuranceModule&#45;&gt;VehicleFormComponent  -->
<g id="edge35" class="edge">
<title>InsuranceModule&#45;&gt;VehicleFormComponent </title>
<path fill="none" stroke="#000000" stroke-dasharray="5,2" d="M4088.8177,-237.8314C4088.8177,-233.9541 4088.8177,-231 4088.8177,-231 4088.8177,-231 271,-231 271,-231 271,-231 271,-208.1243 271,-208.1243"/>
<polygon fill="#000000" stroke="#000000" points="274.5001,-208.1243 271,-198.1243 267.5001,-208.1243 274.5001,-208.1243"/>
</g>
<!-- ClientFormComponent  -->
<g id="node36" class="node">
<title>ClientFormComponent </title>
<polygon fill="#fb8072" stroke="#000000" points="173.8897,-198 24.1103,-198 24.1103,-162 173.8897,-162 173.8897,-198"/>
<text text-anchor="middle" x="99" y="-175.8" font-family="Times,serif" font-size="14.00" fill="#000000">ClientFormComponent </text>
</g>
<!-- InsuranceModule&#45;&gt;ClientFormComponent  -->
<g id="edge36" class="edge">
<title>InsuranceModule&#45;&gt;ClientFormComponent </title>
<path fill="none" stroke="#000000" stroke-dasharray="5,2" d="M4081.5221,-237.8777C4081.5221,-235.0271 4081.5221,-233 4081.5221,-233 4081.5221,-233 99,-233 99,-233 99,-233 99,-208.2396 99,-208.2396"/>
<polygon fill="#000000" stroke="#000000" points="102.5001,-208.2396 99,-198.2396 95.5001,-208.2396 102.5001,-208.2396"/>
</g>
<!-- CompaniesComponent  -->
<g id="node37" class="node">
<title>CompaniesComponent </title>
<polygon fill="#fb8072" stroke="#000000" points="883.8241,-198 736.1759,-198 736.1759,-162 883.8241,-162 883.8241,-198"/>
<text text-anchor="middle" x="810" y="-175.8" font-family="Times,serif" font-size="14.00" fill="#000000">CompaniesComponent </text>
</g>
<!-- InsuranceModule&#45;&gt;CompaniesComponent  -->
<g id="edge37" class="edge">
<title>InsuranceModule&#45;&gt;CompaniesComponent </title>
<path fill="none" stroke="#000000" stroke-dasharray="5,2" d="M4110.7044,-237.9551C4110.7044,-230.251 4110.7044,-223 4110.7044,-223 4110.7044,-223 810,-223 810,-223 810,-223 810,-208.4854 810,-208.4854"/>
<polygon fill="#000000" stroke="#000000" points="813.5001,-208.4854 810,-198.4854 806.5001,-208.4855 813.5001,-208.4854"/>
</g>
<!-- OnlineModule&#45;&gt;AppModule -->
<g id="edge12" class="edge">
<title>OnlineModule&#45;&gt;AppModule</title>
<path fill="none" stroke="#000000" d="M4255,-274.1061C4255,-274.1061 4255,-292.991 4255,-292.991"/>
<polygon fill="#000000" stroke="#000000" points="4251.5001,-292.9909 4255,-302.991 4258.5001,-292.991 4251.5001,-292.9909"/>
</g>
<!-- CalcQuestionaryComponent  -->
<g id="node40" class="node">
<title>CalcQuestionaryComponent </title>
<polygon fill="#fb8072" stroke="#000000" points="2154.411,-198 1975.589,-198 1975.589,-162 2154.411,-162 2154.411,-198"/>
<text text-anchor="middle" x="2065" y="-175.8" font-family="Times,serif" font-size="14.00" fill="#000000">CalcQuestionaryComponent </text>
</g>
<!-- OnlineModule&#45;&gt;CalcQuestionaryComponent  -->
<g id="edge41" class="edge">
<title>OnlineModule&#45;&gt;CalcQuestionaryComponent </title>
<path fill="none" stroke="#000000" stroke-dasharray="5,2" d="M4221.1275,-237.9489C4221.1275,-223.627 4221.1275,-206 4221.1275,-206 4221.1275,-206 2065,-206 2065,-206 2065,-206 2065,-205.2058 2065,-205.2058"/>
<polygon fill="#000000" stroke="#000000" points="2068.5001,-208.0578 2065,-198.0579 2061.5001,-208.0579 2068.5001,-208.0578"/>
</g>
<!-- UserService -->
<g id="node15" class="node">
<title>UserService</title>
<ellipse fill="#fdb462" stroke="#000000" cx="3992" cy="-256" rx="58.4415" ry="18"/>
<text text-anchor="middle" x="3992" y="-251.8" font-family="Times,serif" font-size="14.00" fill="#000000">UserService</text>
</g>
<!-- UserService&#45;&gt;AppModule -->
<g id="edge14" class="edge">
<title>UserService&#45;&gt;AppModule</title>
<path fill="none" stroke="#000000" d="M3992,-274.0225C3992,-291.3734 3992,-315 3992,-315 3992,-315 4203.3269,-315 4203.3269,-315"/>
<polygon fill="#000000" stroke="#000000" points="4203.3269,-318.5001 4213.3269,-315 4203.3268,-311.5001 4203.3269,-318.5001"/>
</g>
<!-- DataUserService -->
<g id="node16" class="node">
<title>DataUserService</title>
<ellipse fill="#fdb462" stroke="#000000" cx="3839" cy="-256" rx="76.3976" ry="18"/>
<text text-anchor="middle" x="3839" y="-251.8" font-family="Times,serif" font-size="14.00" fill="#000000">DataUserService</text>
</g>
<!-- DataUserService&#45;&gt;AppModule -->
<g id="edge15" class="edge">
<title>DataUserService&#45;&gt;AppModule</title>
<path fill="none" stroke="#000000" d="M3839,-274.302C3839,-292.2699 3839,-317 3839,-317 3839,-317 4203.2076,-317 4203.2076,-317"/>
<polygon fill="#000000" stroke="#000000" points="4203.2077,-320.5001 4213.2076,-317 4203.2076,-313.5001 4203.2077,-320.5001"/>
</g>
<!-- InsuranceService -->
<g id="node17" class="node">
<title>InsuranceService</title>
<ellipse fill="#fdb462" stroke="#000000" cx="3667" cy="-256" rx="77.5453" ry="18"/>
<text text-anchor="middle" x="3667" y="-251.8" font-family="Times,serif" font-size="14.00" fill="#000000">InsuranceService</text>
</g>
<!-- InsuranceService&#45;&gt;AppModule -->
<g id="edge16" class="edge">
<title>InsuranceService&#45;&gt;AppModule</title>
<path fill="none" stroke="#000000" d="M3667,-274.1686C3667,-293.0898 3667,-320 3667,-320 3667,-320 4203.1839,-320 4203.1839,-320"/>
<polygon fill="#000000" stroke="#000000" points="4203.1839,-323.5001 4213.1839,-320 4203.1838,-316.5001 4203.1839,-323.5001"/>
</g>
<!-- DataInsuranceService -->
<g id="node18" class="node">
<title>DataInsuranceService</title>
<ellipse fill="#fdb462" stroke="#000000" cx="3476" cy="-256" rx="95.5028" ry="18"/>
<text text-anchor="middle" x="3476" y="-251.8" font-family="Times,serif" font-size="14.00" fill="#000000">DataInsuranceService</text>
</g>
<!-- DataInsuranceService&#45;&gt;AppModule -->
<g id="edge17" class="edge">
<title>DataInsuranceService&#45;&gt;AppModule</title>
<path fill="none" stroke="#000000" d="M3476,-274.308C3476,-294.1455 3476,-323 3476,-323 3476,-323 4203.1176,-323 4203.1176,-323"/>
<polygon fill="#000000" stroke="#000000" points="4203.1176,-326.5001 4213.1176,-323 4203.1175,-319.5001 4203.1176,-326.5001"/>
</g>
<!-- ClientService -->
<g id="node19" class="node">
<title>ClientService</title>
<ellipse fill="#fdb462" stroke="#000000" cx="3299" cy="-256" rx="63.6967" ry="18"/>
<text text-anchor="middle" x="3299" y="-251.8" font-family="Times,serif" font-size="14.00" fill="#000000">ClientService</text>
</g>
<!-- ClientService&#45;&gt;AppModule -->
<g id="edge18" class="edge">
<title>ClientService&#45;&gt;AppModule</title>
<path fill="none" stroke="#000000" d="M3299,-274.0267C3299,-294.7672 3299,-326 3299,-326 3299,-326 4203.3072,-326 4203.3072,-326"/>
<polygon fill="#000000" stroke="#000000" points="4203.3072,-329.5001 4213.3072,-326 4203.3071,-322.5001 4203.3072,-329.5001"/>
</g>
<!-- DataClientService -->
<g id="node20" class="node">
<title>DataClientService</title>
<ellipse fill="#fdb462" stroke="#000000" cx="3136" cy="-256" rx="81.6538" ry="18"/>
<text text-anchor="middle" x="3136" y="-251.8" font-family="Times,serif" font-size="14.00" fill="#000000">DataClientService</text>
</g>
<!-- DataClientService&#45;&gt;AppModule -->
<g id="edge19" class="edge">
<title>DataClientService&#45;&gt;AppModule</title>
<path fill="none" stroke="#000000" d="M3136,-274.1686C3136,-295.498 3136,-328 3136,-328 3136,-328 4203.1762,-328 4203.1762,-328"/>
<polygon fill="#000000" stroke="#000000" points="4203.1762,-331.5001 4213.1762,-328 4203.1761,-324.5001 4203.1762,-331.5001"/>
</g>
<!-- VehicleService -->
<g id="node21" class="node">
<title>VehicleService</title>
<ellipse fill="#fdb462" stroke="#000000" cx="2966" cy="-256" rx="70.0384" ry="18"/>
<text text-anchor="middle" x="2966" y="-251.8" font-family="Times,serif" font-size="14.00" fill="#000000">VehicleService</text>
</g>
<!-- VehicleService&#45;&gt;AppModule -->
<g id="edge20" class="edge">
<title>VehicleService&#45;&gt;AppModule</title>
<path fill="none" stroke="#000000" d="M2966,-274.1554C2966,-296.3519 2966,-331 2966,-331 2966,-331 4203.2098,-331 4203.2098,-331"/>
<polygon fill="#000000" stroke="#000000" points="4203.2098,-334.5001 4213.2098,-331 4203.2097,-327.5001 4203.2098,-334.5001"/>
</g>
<!-- DataVehicleService -->
<g id="node22" class="node">
<title>DataVehicleService</title>
<ellipse fill="#fdb462" stroke="#000000" cx="2790" cy="-256" rx="88.496" ry="18"/>
<text text-anchor="middle" x="2790" y="-251.8" font-family="Times,serif" font-size="14.00" fill="#000000">DataVehicleService</text>
</g>
<!-- DataVehicleService&#45;&gt;AppModule -->
<g id="edge21" class="edge">
<title>DataVehicleService&#45;&gt;AppModule</title>
<path fill="none" stroke="#000000" d="M2790,-274.0908C2790,-297.1328 2790,-334 2790,-334 2790,-334 4203.1261,-334 4203.1261,-334"/>
<polygon fill="#000000" stroke="#000000" points="4203.1262,-337.5001 4213.1261,-334 4203.1261,-330.5001 4203.1262,-337.5001"/>
</g>
<!-- AdminGuard -->
<g id="node23" class="node">
<title>AdminGuard</title>
<ellipse fill="#fdb462" stroke="#000000" cx="2622" cy="-256" rx="61.9808" ry="18"/>
<text text-anchor="middle" x="2622" y="-251.8" font-family="Times,serif" font-size="14.00" fill="#000000">AdminGuard</text>
</g>
<!-- AdminGuard&#45;&gt;AppModule -->
<g id="edge22" class="edge">
<title>AdminGuard&#45;&gt;AppModule</title>
<path fill="none" stroke="#000000" d="M2622,-274.3802C2622,-298.2785 2622,-337 2622,-337 2622,-337 4202.9925,-337 4202.9925,-337"/>
<polygon fill="#000000" stroke="#000000" points="4202.9925,-340.5001 4212.9925,-337 4202.9924,-333.5001 4202.9925,-340.5001"/>
</g>
<!-- AuthComponent -->
<g id="node24" class="node">
<title>AuthComponent</title>
<polygon fill="#ffffb3" stroke="#000000" points="3908.8301,-122 3799.1699,-122 3799.1699,-86 3908.8301,-86 3908.8301,-122"/>
<text text-anchor="middle" x="3854" y="-99.8" font-family="Times,serif" font-size="14.00" fill="#000000">AuthComponent</text>
</g>
<!-- AuthComponent&#45;&gt;AuthModule -->
<g id="edge23" class="edge">
<title>AuthComponent&#45;&gt;AuthModule</title>
<path fill="none" stroke="#000000" d="M3854,-122.308C3854,-142.1455 3854,-171 3854,-171 3854,-171 4064.4058,-171 4064.4058,-171"/>
<polygon fill="#000000" stroke="#000000" points="4064.4058,-174.5001 4074.4058,-171 4064.4057,-167.5001 4064.4058,-174.5001"/>
</g>
<!-- LoginComponent -->
<g id="node25" class="node">
<title>LoginComponent</title>
<polygon fill="#ffffb3" stroke="#000000" points="3781.2758,-122 3666.7242,-122 3666.7242,-86 3781.2758,-86 3781.2758,-122"/>
<text text-anchor="middle" x="3724" y="-99.8" font-family="Times,serif" font-size="14.00" fill="#000000">LoginComponent</text>
</g>
<!-- LoginComponent&#45;&gt;AuthModule -->
<g id="edge24" class="edge">
<title>LoginComponent&#45;&gt;AuthModule</title>
<path fill="none" stroke="#000000" d="M3771.9695,-122.0109C3771.9695,-144.4852 3771.9695,-180 3771.9695,-180 3771.9695,-180 4064.175,-180 4064.175,-180"/>
<polygon fill="#000000" stroke="#000000" points="4064.175,-183.5001 4074.175,-180 4064.175,-176.5001 4064.175,-183.5001"/>
</g>
<!-- SignupComponent -->
<g id="node26" class="node">
<title>SignupComponent</title>
<polygon fill="#ffffb3" stroke="#000000" points="4047.5056,-122 3926.4944,-122 3926.4944,-86 4047.5056,-86 4047.5056,-122"/>
<text text-anchor="middle" x="3987" y="-99.8" font-family="Times,serif" font-size="14.00" fill="#000000">SignupComponent</text>
</g>
<!-- SignupComponent&#45;&gt;AuthModule -->
<g id="edge25" class="edge">
<title>SignupComponent&#45;&gt;AuthModule</title>
<path fill="none" stroke="#000000" d="M4047.5235,-104C4065.6909,-104 4080.8899,-104 4080.8899,-104 4080.8899,-104 4080.8899,-151.9891 4080.8899,-151.9891"/>
<polygon fill="#000000" stroke="#000000" points="4077.39,-151.989 4080.8899,-161.9891 4084.39,-151.9891 4077.39,-151.989"/>
</g>
<!-- InsuranceInfoComponent -->
<g id="node27" class="node">
<title>InsuranceInfoComponent</title>
<polygon fill="#ffffb3" stroke="#000000" points="1773.5632,-198 1614.4368,-198 1614.4368,-162 1773.5632,-162 1773.5632,-198"/>
<text text-anchor="middle" x="1694" y="-175.8" font-family="Times,serif" font-size="14.00" fill="#000000">InsuranceInfoComponent</text>
</g>
<!-- InsuranceInfoComponent&#45;&gt;InsuranceModule -->
<g id="edge26" class="edge">
<title>InsuranceInfoComponent&#45;&gt;InsuranceModule</title>
<path fill="none" stroke="#000000" d="M1694,-198.0328C1694,-204.8526 1694,-211 1694,-211 1694,-211 4147.1823,-211 4147.1823,-211 4147.1823,-211 4147.1823,-227.9561 4147.1823,-227.9561"/>
<polygon fill="#000000" stroke="#000000" points="4143.6824,-227.956 4147.1823,-237.9561 4150.6824,-227.9561 4143.6824,-227.956"/>
</g>
<!-- InsuranceFormComponent -->
<g id="node28" class="node">
<title>InsuranceFormComponent</title>
<polygon fill="#ffffb3" stroke="#000000" points="1596.0758,-198 1429.9242,-198 1429.9242,-162 1596.0758,-162 1596.0758,-198"/>
<text text-anchor="middle" x="1513" y="-175.8" font-family="Times,serif" font-size="14.00" fill="#000000">InsuranceFormComponent</text>
</g>
<!-- InsuranceFormComponent&#45;&gt;InsuranceModule -->
<g id="edge27" class="edge">
<title>InsuranceFormComponent&#45;&gt;InsuranceModule</title>
<path fill="none" stroke="#000000" d="M1513,-198.0449C1513,-205.749 1513,-213 1513,-213 1513,-213 4139.8868,-213 4139.8868,-213 4139.8868,-213 4139.8868,-227.5146 4139.8868,-227.5146"/>
<polygon fill="#000000" stroke="#000000" points="4136.3868,-227.5145 4139.8868,-237.5146 4143.3868,-227.5146 4136.3868,-227.5145"/>
</g>
<!-- VehicleFormComponent -->
<g id="node29" class="node">
<title>VehicleFormComponent</title>
<polygon fill="#ffffb3" stroke="#000000" points="1411.6979,-198 1256.3021,-198 1256.3021,-162 1411.6979,-162 1411.6979,-198"/>
<text text-anchor="middle" x="1334" y="-175.8" font-family="Times,serif" font-size="14.00" fill="#000000">VehicleFormComponent</text>
</g>
<!-- VehicleFormComponent&#45;&gt;InsuranceModule -->
<g id="edge28" class="edge">
<title>VehicleFormComponent&#45;&gt;InsuranceModule</title>
<path fill="none" stroke="#000000" d="M1334,-198.4218C1334,-207.2791 1334,-216 1334,-216 1334,-216 4132.5912,-216 4132.5912,-216 4132.5912,-216 4132.5912,-227.8726 4132.5912,-227.8726"/>
<polygon fill="#000000" stroke="#000000" points="4129.0913,-227.8725 4132.5912,-237.8726 4136.0913,-227.8726 4129.0913,-227.8725"/>
</g>
<!-- ClientFormComponent -->
<g id="node30" class="node">
<title>ClientFormComponent</title>
<polygon fill="#ffffb3" stroke="#000000" points="1237.8892,-198 1092.1108,-198 1092.1108,-162 1237.8892,-162 1237.8892,-198"/>
<text text-anchor="middle" x="1165" y="-175.8" font-family="Times,serif" font-size="14.00" fill="#000000">ClientFormComponent</text>
</g>
<!-- ClientFormComponent&#45;&gt;InsuranceModule -->
<g id="edge29" class="edge">
<title>ClientFormComponent&#45;&gt;InsuranceModule</title>
<path fill="none" stroke="#000000" d="M1165,-198.1097C1165,-207.897 1165,-218 1165,-218 1165,-218 4125.2956,-218 4125.2956,-218 4125.2956,-218 4125.2956,-227.8903 4125.2956,-227.8903"/>
<polygon fill="#000000" stroke="#000000" points="4121.7957,-227.8903 4125.2956,-237.8903 4128.7957,-227.8904 4121.7957,-227.8903"/>
</g>
<!-- CompaniesComponent -->
<g id="node31" class="node">
<title>CompaniesComponent</title>
<polygon fill="#ffffb3" stroke="#000000" points="1936.3244,-198 1791.6756,-198 1791.6756,-162 1936.3244,-162 1936.3244,-198"/>
<text text-anchor="middle" x="1864" y="-175.8" font-family="Times,serif" font-size="14.00" fill="#000000">CompaniesComponent</text>
</g>
<!-- CompaniesComponent&#45;&gt;InsuranceModule -->
<g id="edge30" class="edge">
<title>CompaniesComponent&#45;&gt;InsuranceModule</title>
<path fill="none" stroke="#000000" d="M1864,-198.207C1864,-203.5549 1864,-208 1864,-208 1864,-208 4154.4779,-208 4154.4779,-208 4154.4779,-208 4154.4779,-227.8533 4154.4779,-227.8533"/>
<polygon fill="#000000" stroke="#000000" points="4150.978,-227.8532 4154.4779,-237.8533 4157.978,-227.8533 4150.978,-227.8532"/>
</g>
<!-- InsuranceRoutingModule -->
<g id="node32" class="node">
<title>InsuranceRoutingModule</title>
<polygon fill="#8dd3c7" stroke="#000000" points="1067.5772,-198 1064.5772,-202 1043.5772,-202 1040.5772,-198 908.4228,-198 908.4228,-162 1067.5772,-162 1067.5772,-198"/>
<text text-anchor="middle" x="988" y="-175.8" font-family="Times,serif" font-size="14.00" fill="#000000">InsuranceRoutingModule</text>
</g>
<!-- InsuranceRoutingModule&#45;&gt;InsuranceModule -->
<g id="edge31" class="edge">
<title>InsuranceRoutingModule&#45;&gt;InsuranceModule</title>
<path fill="none" stroke="#000000" d="M988,-198.1025C988,-209.0859 988,-221 988,-221 988,-221 4118,-221 4118,-221 4118,-221 4118,-227.68 4118,-227.68"/>
<polygon fill="#000000" stroke="#000000" points="4114.5001,-227.6799 4118,-237.68 4121.5001,-227.68 4114.5001,-227.6799"/>
</g>
<!-- CalcQuestionaryComponent -->
<g id="node38" class="node">
<title>CalcQuestionaryComponent</title>
<polygon fill="#ffffb3" stroke="#000000" points="2519.9115,-198 2344.0885,-198 2344.0885,-162 2519.9115,-162 2519.9115,-198"/>
<text text-anchor="middle" x="2432" y="-175.8" font-family="Times,serif" font-size="14.00" fill="#000000">CalcQuestionaryComponent</text>
</g>
<!-- CalcQuestionaryComponent&#45;&gt;OnlineModule -->
<g id="edge38" class="edge">
<title>CalcQuestionaryComponent&#45;&gt;OnlineModule</title>
<path fill="none" stroke="#000000" d="M2432,-198.08C2432,-199.8464 2432,-201 2432,-201 2432,-201 4251.0346,-201 4251.0346,-201 4251.0346,-201 4251.0346,-227.9909 4251.0346,-227.9909"/>
<polygon fill="#000000" stroke="#000000" points="4247.5346,-227.9909 4251.0346,-237.9909 4254.5346,-227.991 4247.5346,-227.9909"/>
</g>
<!-- OnlineRoutingModule -->
<g id="node39" class="node">
<title>OnlineRoutingModule</title>
<polygon fill="#8dd3c7" stroke="#000000" points="2320.2702,-198 2317.2702,-202 2296.2702,-202 2293.2702,-198 2177.7298,-198 2177.7298,-162 2320.2702,-162 2320.2702,-198"/>
<text text-anchor="middle" x="2249" y="-175.8" font-family="Times,serif" font-size="14.00" fill="#000000">OnlineRoutingModule</text>
</g>
<!-- OnlineRoutingModule&#45;&gt;OnlineModule -->
<g id="edge39" class="edge">
<title>OnlineRoutingModule&#45;&gt;OnlineModule</title>
<path fill="none" stroke="#000000" d="M2249,-198.1223C2249,-200.9729 2249,-203 2249,-203 2249,-203 4236.081,-203 4236.081,-203 4236.081,-203 4236.081,-227.7604 4236.081,-227.7604"/>
<polygon fill="#000000" stroke="#000000" points="4232.5811,-227.7604 4236.081,-237.7604 4239.5811,-227.7604 4232.5811,-227.7604"/>
</g>
<!-- FooterComponent -->
<g id="node41" class="node">
<title>FooterComponent</title>
<polygon fill="#ffffb3" stroke="#000000" points="6331.8809,-274 6214.1191,-274 6214.1191,-238 6331.8809,-238 6331.8809,-274"/>
<text text-anchor="middle" x="6273" y="-251.8" font-family="Times,serif" font-size="14.00" fill="#000000">FooterComponent</text>
</g>
<!-- FooterComponent&#45;&gt;SharedModule -->
<g id="edge42" class="edge">
<title>FooterComponent&#45;&gt;SharedModule</title>
<path fill="none" stroke="#000000" d="M6273,-237.7663C6273,-211.9906 6273,-168 6273,-168 6273,-168 4539.3564,-168 4539.3564,-168"/>
<polygon fill="#000000" stroke="#000000" points="4539.3564,-164.5001 4529.3564,-168 4539.3563,-171.5001 4539.3564,-164.5001"/>
</g>
<!-- NavbarComponent -->
<g id="node42" class="node">
<title>NavbarComponent</title>
<polygon fill="#ffffb3" stroke="#000000" points="6196.0297,-274 6073.9703,-274 6073.9703,-238 6196.0297,-238 6196.0297,-274"/>
<text text-anchor="middle" x="6135" y="-251.8" font-family="Times,serif" font-size="14.00" fill="#000000">NavbarComponent</text>
</g>
<!-- NavbarComponent&#45;&gt;SharedModule -->
<g id="edge43" class="edge">
<title>NavbarComponent&#45;&gt;SharedModule</title>
<path fill="none" stroke="#000000" d="M6135,-237.9902C6135,-213.5793 6135,-173 6135,-173 6135,-173 4539.5309,-173 4539.5309,-173"/>
<polygon fill="#000000" stroke="#000000" points="4539.5309,-169.5001 4529.5309,-173 4539.5308,-176.5001 4539.5309,-169.5001"/>
</g>
<!-- SidebarComponent -->
<g id="node43" class="node">
<title>SidebarComponent</title>
<polygon fill="#ffffb3" stroke="#000000" points="6056.0954,-274 5931.9046,-274 5931.9046,-238 6056.0954,-238 6056.0954,-274"/>
<text text-anchor="middle" x="5994" y="-251.8" font-family="Times,serif" font-size="14.00" fill="#000000">SidebarComponent</text>
</g>
<!-- SidebarComponent&#45;&gt;SharedModule -->
<g id="edge44" class="edge">
<title>SidebarComponent&#45;&gt;SharedModule</title>
<path fill="none" stroke="#000000" d="M5994,-237.9092C5994,-214.8672 5994,-178 5994,-178 5994,-178 4539.5127,-178 4539.5127,-178"/>
<polygon fill="#000000" stroke="#000000" points="4539.5128,-174.5001 4529.5127,-178 4539.5127,-181.5001 4539.5128,-174.5001"/>
</g>
<!-- UserComponent -->
<g id="node47" class="node">
<title>UserComponent</title>
<polygon fill="#ffffb3" stroke="#000000" points="4833.7591,-122 4726.2409,-122 4726.2409,-86 4833.7591,-86 4833.7591,-122"/>
<text text-anchor="middle" x="4780" y="-99.8" font-family="Times,serif" font-size="14.00" fill="#000000">UserComponent</text>
</g>
<!-- UserComponent&#45;&gt;UserModule -->
<g id="edge48" class="edge">
<title>UserComponent&#45;&gt;UserModule</title>
<path fill="none" stroke="#000000" d="M4738.5502,-122.1467C4738.5502,-135.7395 4738.5502,-152 4738.5502,-152 4738.5502,-152 4259.584,-152 4259.584,-152 4259.584,-152 4259.584,-152.9793 4259.584,-152.9793"/>
<polygon fill="#000000" stroke="#000000" points="4256.0841,-151.793 4259.584,-161.793 4263.0841,-151.7931 4256.0841,-151.793"/>
</g>
<!-- UserProfileComponent -->
<g id="node48" class="node">
<title>UserProfileComponent</title>
<polygon fill="#ffffb3" stroke="#000000" points="4707.8585,-122 4562.1415,-122 4562.1415,-86 4707.8585,-86 4707.8585,-122"/>
<text text-anchor="middle" x="4635" y="-99.8" font-family="Times,serif" font-size="14.00" fill="#000000">UserProfileComponent</text>
</g>
<!-- UserProfileComponent&#45;&gt;UserModule -->
<g id="edge49" class="edge">
<title>UserProfileComponent&#45;&gt;UserModule</title>
<path fill="none" stroke="#000000" d="M4635,-122.1097C4635,-131.897 4635,-142 4635,-142 4635,-142 4253.1799,-142 4253.1799,-142 4253.1799,-142 4253.1799,-151.8903 4253.1799,-151.8903"/>
<polygon fill="#000000" stroke="#000000" points="4249.68,-151.8903 4253.1799,-161.8903 4256.68,-151.8904 4249.68,-151.8903"/>
</g>
<!-- UserInsurancesComponent -->
<g id="node49" class="node">
<title>UserInsurancesComponent</title>
<polygon fill="#ffffb3" stroke="#000000" points="4543.6134,-122 4376.3866,-122 4376.3866,-86 4543.6134,-86 4543.6134,-122"/>
<text text-anchor="middle" x="4460" y="-99.8" font-family="Times,serif" font-size="14.00" fill="#000000">UserInsurancesComponent</text>
</g>
<!-- UserInsurancesComponent&#45;&gt;UserModule -->
<g id="edge50" class="edge">
<title>UserInsurancesComponent&#45;&gt;UserModule</title>
<path fill="none" stroke="#000000" d="M4394.2903,-122.207C4394.2903,-127.5549 4394.2903,-132 4394.2903,-132 4394.2903,-132 4246.7759,-132 4246.7759,-132 4246.7759,-132 4246.7759,-151.8533 4246.7759,-151.8533"/>
<polygon fill="#000000" stroke="#000000" points="4243.276,-151.8532 4246.7759,-161.8533 4250.276,-151.8533 4243.276,-151.8532"/>
</g>
<!-- InsuranceTypePipe -->
<g id="node50" class="node">
<title>InsuranceTypePipe</title>
<polygon fill="#ffffb3" stroke="#000000" points="4358.0646,-122 4233.9354,-122 4233.9354,-86 4358.0646,-86 4358.0646,-122"/>
<text text-anchor="middle" x="4296" y="-99.8" font-family="Times,serif" font-size="14.00" fill="#000000">InsuranceTypePipe</text>
</g>
<!-- InsuranceTypePipe&#45;&gt;UserModule -->
<g id="edge51" class="edge">
<title>InsuranceTypePipe&#45;&gt;UserModule</title>
<path fill="none" stroke="#000000" d="M4240.3718,-122.0109C4240.3718,-122.0109 4240.3718,-151.855 4240.3718,-151.855"/>
<polygon fill="#000000" stroke="#000000" points="4236.8719,-151.8549 4240.3718,-161.855 4243.8719,-151.855 4236.8719,-151.8549"/>
</g>
<!-- ProfileGuard -->
<g id="node51" class="node">
<title>ProfileGuard</title>
<ellipse fill="#fdb462" stroke="#000000" cx="4149" cy="-104" rx="61.3935" ry="18"/>
<text text-anchor="middle" x="4149" y="-99.8" font-family="Times,serif" font-size="14.00" fill="#000000">ProfileGuard</text>
</g>
<!-- ProfileGuard&#45;&gt;UserModule -->
<g id="edge52" class="edge">
<title>ProfileGuard&#45;&gt;UserModule</title>
<path fill="none" stroke="#000000" d="M4195.2293,-115.875C4195.2293,-115.875 4195.2293,-151.9891 4195.2293,-151.9891"/>
<polygon fill="#000000" stroke="#000000" points="4191.7294,-151.989 4195.2293,-161.9891 4198.7294,-151.9891 4191.7294,-151.989"/>
</g>
</g>
</svg>
