<?xml version="1.0" encoding="UTF-8" standalone="no"?>
<!DOCTYPE svg PUBLIC "-//W3C//DTD SVG 1.1//EN"
 "http://www.w3.org/Graphics/SVG/1.1/DTD/svg11.dtd">
<!-- Generated by graphviz version 2.40.1 (20161225.0304)
 -->
<!-- Title: dependencies Pages: 1 -->
<svg width="3200pt" height="284pt"
 viewBox="0.00 0.00 3200.00 284.00" xmlns="http://www.w3.org/2000/svg" xmlns:xlink="http://www.w3.org/1999/xlink">
<g id="graph0" class="graph" transform="scale(1 1) rotate(0) translate(4 280)">
<title>dependencies</title>
<polygon fill="#ffffff" stroke="transparent" points="-4,4 -4,-280 3196,-280 3196,4 -4,4"/>
<text text-anchor="start" x="1575.0091" y="-42.4" font-family="sans-serif" font-weight="bold" font-size="14.00" fill="#000000">Legend</text>
<polygon fill="#ffffb3" stroke="transparent" points="1362,-10 1362,-30 1382,-30 1382,-10 1362,-10"/>
<text text-anchor="start" x="1385.629" y="-15.4" font-family="sans-serif" font-size="14.00" fill="#000000"> &#160;Declarations</text>
<polygon fill="#8dd3c7" stroke="transparent" points="1475,-10 1475,-30 1495,-30 1495,-10 1475,-10"/>
<text text-anchor="start" x="1498.7251" y="-15.4" font-family="sans-serif" font-size="14.00" fill="#000000"> &#160;Module</text>
<polygon fill="#80b1d3" stroke="transparent" points="1561,-10 1561,-30 1581,-30 1581,-10 1561,-10"/>
<text text-anchor="start" x="1584.7812" y="-15.4" font-family="sans-serif" font-size="14.00" fill="#000000"> &#160;Bootstrap</text>
<polygon fill="#fdb462" stroke="transparent" points="1658,-10 1658,-30 1678,-30 1678,-10 1658,-10"/>
<text text-anchor="start" x="1681.6732" y="-15.4" font-family="sans-serif" font-size="14.00" fill="#000000"> &#160;Providers</text>
<polygon fill="#fb8072" stroke="transparent" points="1754,-10 1754,-30 1774,-30 1774,-10 1754,-10"/>
<text text-anchor="start" x="1777.7258" y="-15.4" font-family="sans-serif" font-size="14.00" fill="#000000"> &#160;Exports</text>
<g id="clust1" class="cluster">
<title>cluster_AppModule</title>
<polygon fill="none" stroke="#000000" stroke-dasharray="1,5" points="8,-70 8,-268 3184,-268 3184,-70 8,-70"/>
</g>
<g id="clust2" class="cluster">
<title>cluster_AppModule_declarations</title>
<polygon fill="none" stroke="#000000" points="2256,-78 2256,-130 3176,-130 3176,-78 2256,-78"/>
</g>
<g id="clust9" class="cluster">
<title>cluster_AppModule_imports</title>
<polygon fill="none" stroke="#000000" points="1530,-78 1530,-130 2248,-130 2248,-78 1530,-78"/>
</g>
<g id="clust11" class="cluster">
<title>cluster_AppModule_bootstrap</title>
<polygon fill="none" stroke="#000000" points="1649,-208 1649,-260 1773,-260 1773,-208 1649,-208"/>
</g>
<g id="clust12" class="cluster">
<title>cluster_AppModule_providers</title>
<polygon fill="none" stroke="#000000" points="16,-78 16,-130 1522,-130 1522,-78 16,-78"/>
</g>
<!-- AppComponent -->
<g id="node1" class="node">
<title>AppComponent</title>
<polygon fill="#ffffb3" stroke="#000000" points="3167.9399,-122 3062.0601,-122 3062.0601,-86 3167.9399,-86 3167.9399,-122"/>
<text text-anchor="middle" x="3115" y="-99.8" font-family="Times,serif" font-size="14.00" fill="#000000">AppComponent</text>
</g>
<!-- AppModule -->
<g id="node7" class="node">
<title>AppModule</title>
<polygon fill="#8dd3c7" stroke="#000000" points="1752.6571,-187 1749.6571,-191 1728.6571,-191 1725.6571,-187 1669.3429,-187 1669.3429,-151 1752.6571,-151 1752.6571,-187"/>
<text text-anchor="middle" x="1711" y="-164.8" font-family="Times,serif" font-size="14.00" fill="#000000">AppModule</text>
</g>
<!-- AppComponent&#45;&gt;AppModule -->
<g id="edge1" class="edge">
<title>AppComponent&#45;&gt;AppModule</title>
<path fill="none" stroke="#000000" d="M3115,-122.1532C3115,-145.7566 3115,-184 3115,-184 3115,-184 1763.0189,-184 1763.0189,-184"/>
<polygon fill="#000000" stroke="#000000" points="1763.019,-180.5001 1753.0189,-184 1763.0189,-187.5001 1763.019,-180.5001"/>
</g>
<!-- HomeComponent -->
<g id="node2" class="node">
<title>HomeComponent</title>
<polygon fill="#ffffb3" stroke="#000000" points="3044.5451,-122 2929.4549,-122 2929.4549,-86 3044.5451,-86 3044.5451,-122"/>
<text text-anchor="middle" x="2987" y="-99.8" font-family="Times,serif" font-size="14.00" fill="#000000">HomeComponent</text>
</g>
<!-- HomeComponent&#45;&gt;AppModule -->
<g id="edge2" class="edge">
<title>HomeComponent&#45;&gt;AppModule</title>
<path fill="none" stroke="#000000" d="M2987,-122.2479C2987,-145.0179 2987,-181 2987,-181 2987,-181 1762.7294,-181 1762.7294,-181"/>
<polygon fill="#000000" stroke="#000000" points="1762.7294,-177.5001 1752.7294,-181 1762.7293,-184.5001 1762.7294,-177.5001"/>
</g>
<!-- AboutComponent -->
<g id="node3" class="node">
<title>AboutComponent</title>
<polygon fill="#ffffb3" stroke="#000000" points="2911.3301,-122 2794.6699,-122 2794.6699,-86 2911.3301,-86 2911.3301,-122"/>
<text text-anchor="middle" x="2853" y="-99.8" font-family="Times,serif" font-size="14.00" fill="#000000">AboutComponent</text>
</g>
<!-- AboutComponent&#45;&gt;AppModule -->
<g id="edge3" class="edge">
<title>AboutComponent&#45;&gt;AppModule</title>
<path fill="none" stroke="#000000" d="M2853,-122.2921C2853,-144.2057 2853,-178 2853,-178 2853,-178 1762.6583,-178 1762.6583,-178"/>
<polygon fill="#000000" stroke="#000000" points="1762.6583,-174.5001 1752.6583,-178 1762.6582,-181.5001 1762.6583,-174.5001"/>
</g>
<!-- CarouselComponent -->
<g id="node4" class="node">
<title>CarouselComponent</title>
<polygon fill="#ffffb3" stroke="#000000" points="2776.594,-122 2645.406,-122 2645.406,-86 2776.594,-86 2776.594,-122"/>
<text text-anchor="middle" x="2711" y="-99.8" font-family="Times,serif" font-size="14.00" fill="#000000">CarouselComponent</text>
</g>
<!-- CarouselComponent&#45;&gt;AppModule -->
<g id="edge4" class="edge">
<title>CarouselComponent&#45;&gt;AppModule</title>
<path fill="none" stroke="#000000" d="M2711,-122.0267C2711,-142.7672 2711,-174 2711,-174 2711,-174 1762.6956,-174 1762.6956,-174"/>
<polygon fill="#000000" stroke="#000000" points="1762.6956,-170.5001 1752.6956,-174 1762.6956,-177.5001 1762.6956,-170.5001"/>
</g>
<!-- AdminPaneComponent -->
<g id="node5" class="node">
<title>AdminPaneComponent</title>
<polygon fill="#ffffb3" stroke="#000000" points="2627.9326,-122 2480.0674,-122 2480.0674,-86 2627.9326,-86 2627.9326,-122"/>
<text text-anchor="middle" x="2554" y="-99.8" font-family="Times,serif" font-size="14.00" fill="#000000">AdminPaneComponent</text>
</g>
<!-- AdminPaneComponent&#45;&gt;AppModule -->
<g id="edge5" class="edge">
<title>AdminPaneComponent&#45;&gt;AppModule</title>
<path fill="none" stroke="#000000" d="M2554,-122.308C2554,-142.1455 2554,-171 2554,-171 2554,-171 1762.8045,-171 1762.8045,-171"/>
<polygon fill="#000000" stroke="#000000" points="1762.8045,-167.5001 1752.8045,-171 1762.8045,-174.5001 1762.8045,-167.5001"/>
</g>
<!-- AdminSearchDetailsComponent -->
<g id="node6" class="node">
<title>AdminSearchDetailsComponent</title>
<polygon fill="#ffffb3" stroke="#000000" points="2461.9594,-122 2264.0406,-122 2264.0406,-86 2461.9594,-86 2461.9594,-122"/>
<text text-anchor="middle" x="2363" y="-99.8" font-family="Times,serif" font-size="14.00" fill="#000000">AdminSearchDetailsComponent</text>
</g>
<!-- AdminSearchDetailsComponent&#45;&gt;AppModule -->
<g id="edge6" class="edge">
<title>AdminSearchDetailsComponent&#45;&gt;AppModule</title>
<path fill="none" stroke="#000000" d="M2363,-122.1686C2363,-141.0898 2363,-168 2363,-168 2363,-168 1762.7774,-168 1762.7774,-168"/>
<polygon fill="#000000" stroke="#000000" points="1762.7774,-164.5001 1752.7774,-168 1762.7773,-171.5001 1762.7774,-164.5001"/>
</g>
<!-- AppComponent  -->
<g id="node14" class="node">
<title>AppComponent </title>
<polygon fill="#80b1d3" stroke="#000000" points="1765.439,-252 1656.561,-252 1656.561,-216 1765.439,-216 1765.439,-252"/>
<text text-anchor="middle" x="1711" y="-229.8" font-family="Times,serif" font-size="14.00" fill="#000000">AppComponent </text>
</g>
<!-- AppModule&#45;&gt;AppComponent  -->
<g id="edge13" class="edge">
<title>AppModule&#45;&gt;AppComponent </title>
<path fill="none" stroke="#000000" stroke-dasharray="1,5" d="M1711,-187.1061C1711,-187.1061 1711,-205.991 1711,-205.991"/>
<polygon fill="#000000" stroke="#000000" points="1707.5001,-205.9909 1711,-215.991 1714.5001,-205.991 1707.5001,-205.9909"/>
</g>
<!-- SharedModule -->
<g id="node8" class="node">
<title>SharedModule</title>
<polygon fill="#8dd3c7" stroke="#000000" points="2240.4231,-122 2237.4231,-126 2216.4231,-126 2213.4231,-122 2141.5769,-122 2141.5769,-86 2240.4231,-86 2240.4231,-122"/>
<text text-anchor="middle" x="2191" y="-99.8" font-family="Times,serif" font-size="14.00" fill="#000000">SharedModule</text>
</g>
<!-- SharedModule&#45;&gt;AppModule -->
<g id="edge7" class="edge">
<title>SharedModule&#45;&gt;AppModule</title>
<path fill="none" stroke="#000000" d="M2191,-122.302C2191,-140.2699 2191,-165 2191,-165 2191,-165 1762.7572,-165 1762.7572,-165"/>
<polygon fill="#000000" stroke="#000000" points="1762.7572,-161.5001 1752.7572,-165 1762.7571,-168.5001 1762.7572,-161.5001"/>
</g>
<!-- AuthModule -->
<g id="node9" class="node">
<title>AuthModule</title>
<polygon fill="#8dd3c7" stroke="#000000" points="2123.5482,-122 2120.5482,-126 2099.5482,-126 2096.5482,-122 2036.4518,-122 2036.4518,-86 2123.5482,-86 2123.5482,-122"/>
<text text-anchor="middle" x="2080" y="-99.8" font-family="Times,serif" font-size="14.00" fill="#000000">AuthModule</text>
</g>
<!-- AuthModule&#45;&gt;AppModule -->
<g id="edge8" class="edge">
<title>AuthModule&#45;&gt;AppModule</title>
<path fill="none" stroke="#000000" d="M2080,-122.0352C2080,-138.7344 2080,-161 2080,-161 2080,-161 1762.9697,-161 1762.9697,-161"/>
<polygon fill="#000000" stroke="#000000" points="1762.9698,-157.5001 1752.9697,-161 1762.9697,-164.5001 1762.9698,-157.5001"/>
</g>
<!-- UserModule -->
<g id="node10" class="node">
<title>UserModule</title>
<polygon fill="#8dd3c7" stroke="#000000" points="2017.9762,-122 2014.9762,-126 1993.9762,-126 1990.9762,-122 1932.0238,-122 1932.0238,-86 2017.9762,-86 2017.9762,-122"/>
<text text-anchor="middle" x="1975" y="-99.8" font-family="Times,serif" font-size="14.00" fill="#000000">UserModule</text>
</g>
<!-- UserModule&#45;&gt;AppModule -->
<g id="edge9" class="edge">
<title>UserModule&#45;&gt;AppModule</title>
<path fill="none" stroke="#000000" d="M1975,-122.2819C1975,-137.9478 1975,-158 1975,-158 1975,-158 1762.8316,-158 1762.8316,-158"/>
<polygon fill="#000000" stroke="#000000" points="1762.8316,-154.5001 1752.8316,-158 1762.8315,-161.5001 1762.8316,-154.5001"/>
</g>
<!-- AppRoutingModule -->
<g id="node11" class="node">
<title>AppRoutingModule</title>
<polygon fill="#8dd3c7" stroke="#000000" points="1914.2744,-122 1911.2744,-126 1890.2744,-126 1887.2744,-122 1785.7256,-122 1785.7256,-86 1914.2744,-86 1914.2744,-122"/>
<text text-anchor="middle" x="1850" y="-99.8" font-family="Times,serif" font-size="14.00" fill="#000000">AppRoutingModule</text>
</g>
<!-- AppRoutingModule&#45;&gt;AppModule -->
<g id="edge10" class="edge">
<title>AppRoutingModule&#45;&gt;AppModule</title>
<path fill="none" stroke="#000000" d="M1850,-122.1243C1850,-136.7832 1850,-155 1850,-155 1850,-155 1762.7046,-155 1762.7046,-155"/>
<polygon fill="#000000" stroke="#000000" points="1762.7046,-151.5001 1752.7046,-155 1762.7045,-158.5001 1762.7046,-151.5001"/>
</g>
<!-- InsuranceModule -->
<g id="node12" class="node">
<title>InsuranceModule</title>
<polygon fill="#8dd3c7" stroke="#000000" points="1767.9594,-122 1764.9594,-126 1743.9594,-126 1740.9594,-122 1654.0406,-122 1654.0406,-86 1767.9594,-86 1767.9594,-122"/>
<text text-anchor="middle" x="1711" y="-99.8" font-family="Times,serif" font-size="14.00" fill="#000000">InsuranceModule</text>
</g>
<!-- InsuranceModule&#45;&gt;AppModule -->
<g id="edge11" class="edge">
<title>InsuranceModule&#45;&gt;AppModule</title>
<path fill="none" stroke="#000000" d="M1711,-122.1061C1711,-122.1061 1711,-140.991 1711,-140.991"/>
<polygon fill="#000000" stroke="#000000" points="1707.5001,-140.9909 1711,-150.991 1714.5001,-140.991 1707.5001,-140.9909"/>
</g>
<!-- OnlineModule -->
<g id="node13" class="node">
<title>OnlineModule</title>
<polygon fill="#8dd3c7" stroke="#000000" points="1635.6528,-122 1632.6528,-126 1611.6528,-126 1608.6528,-122 1538.3472,-122 1538.3472,-86 1635.6528,-86 1635.6528,-122"/>
<text text-anchor="middle" x="1587" y="-99.8" font-family="Times,serif" font-size="14.00" fill="#000000">OnlineModule</text>
</g>
<!-- OnlineModule&#45;&gt;AppModule -->
<g id="edge12" class="edge">
<title>OnlineModule&#45;&gt;AppModule</title>
<path fill="none" stroke="#000000" d="M1587,-122.1243C1587,-136.7832 1587,-155 1587,-155 1587,-155 1659.0193,-155 1659.0193,-155"/>
<polygon fill="#000000" stroke="#000000" points="1659.0193,-158.5001 1669.0193,-155 1659.0192,-151.5001 1659.0193,-158.5001"/>
</g>
<!-- UserService -->
<g id="node15" class="node">
<title>UserService</title>
<ellipse fill="#fdb462" stroke="#000000" cx="1456" cy="-104" rx="58.4415" ry="18"/>
<text text-anchor="middle" x="1456" y="-99.8" font-family="Times,serif" font-size="14.00" fill="#000000">UserService</text>
</g>
<!-- UserService&#45;&gt;AppModule -->
<g id="edge14" class="edge">
<title>UserService&#45;&gt;AppModule</title>
<path fill="none" stroke="#000000" d="M1456,-122.2819C1456,-137.9478 1456,-158 1456,-158 1456,-158 1659.1775,-158 1659.1775,-158"/>
<polygon fill="#000000" stroke="#000000" points="1659.1775,-161.5001 1669.1775,-158 1659.1774,-154.5001 1659.1775,-161.5001"/>
</g>
<!-- DataUserService -->
<g id="node16" class="node">
<title>DataUserService</title>
<ellipse fill="#fdb462" stroke="#000000" cx="1303" cy="-104" rx="76.3976" ry="18"/>
<text text-anchor="middle" x="1303" y="-99.8" font-family="Times,serif" font-size="14.00" fill="#000000">DataUserService</text>
</g>
<!-- DataUserService&#45;&gt;AppModule -->
<g id="edge15" class="edge">
<title>DataUserService&#45;&gt;AppModule</title>
<path fill="none" stroke="#000000" d="M1303,-122.0352C1303,-138.7344 1303,-161 1303,-161 1303,-161 1659.2542,-161 1659.2542,-161"/>
<polygon fill="#000000" stroke="#000000" points="1659.2543,-164.5001 1669.2542,-161 1659.2542,-157.5001 1659.2543,-164.5001"/>
</g>
<!-- InsuranceService -->
<g id="node17" class="node">
<title>InsuranceService</title>
<ellipse fill="#fdb462" stroke="#000000" cx="1131" cy="-104" rx="77.5453" ry="18"/>
<text text-anchor="middle" x="1131" y="-99.8" font-family="Times,serif" font-size="14.00" fill="#000000">InsuranceService</text>
</g>
<!-- InsuranceService&#45;&gt;AppModule -->
<g id="edge16" class="edge">
<title>InsuranceService&#45;&gt;AppModule</title>
<path fill="none" stroke="#000000" d="M1131,-122.302C1131,-140.2699 1131,-165 1131,-165 1131,-165 1659.2878,-165 1659.2878,-165"/>
<polygon fill="#000000" stroke="#000000" points="1659.2879,-168.5001 1669.2878,-165 1659.2878,-161.5001 1659.2879,-168.5001"/>
</g>
<!-- DataInsuranceService -->
<g id="node18" class="node">
<title>DataInsuranceService</title>
<ellipse fill="#fdb462" stroke="#000000" cx="940" cy="-104" rx="95.5028" ry="18"/>
<text text-anchor="middle" x="940" y="-99.8" font-family="Times,serif" font-size="14.00" fill="#000000">DataInsuranceService</text>
</g>
<!-- DataInsuranceService&#45;&gt;AppModule -->
<g id="edge17" class="edge">
<title>DataInsuranceService&#45;&gt;AppModule</title>
<path fill="none" stroke="#000000" d="M940,-122.1686C940,-141.0898 940,-168 940,-168 940,-168 1659.2743,-168 1659.2743,-168"/>
<polygon fill="#000000" stroke="#000000" points="1659.2744,-171.5001 1669.2743,-168 1659.2743,-164.5001 1659.2744,-171.5001"/>
</g>
<!-- ClientService -->
<g id="node19" class="node">
<title>ClientService</title>
<ellipse fill="#fdb462" stroke="#000000" cx="763" cy="-104" rx="63.6967" ry="18"/>
<text text-anchor="middle" x="763" y="-99.8" font-family="Times,serif" font-size="14.00" fill="#000000">ClientService</text>
</g>
<!-- ClientService&#45;&gt;AppModule -->
<g id="edge18" class="edge">
<title>ClientService&#45;&gt;AppModule</title>
<path fill="none" stroke="#000000" d="M763,-122.308C763,-142.1455 763,-171 763,-171 763,-171 1659.0424,-171 1659.0424,-171"/>
<polygon fill="#000000" stroke="#000000" points="1659.0424,-174.5001 1669.0424,-171 1659.0424,-167.5001 1659.0424,-174.5001"/>
</g>
<!-- DataClientService -->
<g id="node20" class="node">
<title>DataClientService</title>
<ellipse fill="#fdb462" stroke="#000000" cx="600" cy="-104" rx="81.6538" ry="18"/>
<text text-anchor="middle" x="600" y="-99.8" font-family="Times,serif" font-size="14.00" fill="#000000">DataClientService</text>
</g>
<!-- DataClientService&#45;&gt;AppModule -->
<g id="edge19" class="edge">
<title>DataClientService&#45;&gt;AppModule</title>
<path fill="none" stroke="#000000" d="M600,-122.0267C600,-142.7672 600,-174 600,-174 600,-174 1659.1403,-174 1659.1403,-174"/>
<polygon fill="#000000" stroke="#000000" points="1659.1403,-177.5001 1669.1403,-174 1659.1402,-170.5001 1659.1403,-177.5001"/>
</g>
<!-- VehicleService -->
<g id="node21" class="node">
<title>VehicleService</title>
<ellipse fill="#fdb462" stroke="#000000" cx="430" cy="-104" rx="70.0384" ry="18"/>
<text text-anchor="middle" x="430" y="-99.8" font-family="Times,serif" font-size="14.00" fill="#000000">VehicleService</text>
</g>
<!-- VehicleService&#45;&gt;AppModule -->
<g id="edge20" class="edge">
<title>VehicleService&#45;&gt;AppModule</title>
<path fill="none" stroke="#000000" d="M430,-122.2921C430,-144.2057 430,-178 430,-178 430,-178 1659.1071,-178 1659.1071,-178"/>
<polygon fill="#000000" stroke="#000000" points="1659.1072,-181.5001 1669.1071,-178 1659.1071,-174.5001 1659.1072,-181.5001"/>
</g>
<!-- DataVehicleService -->
<g id="node22" class="node">
<title>DataVehicleService</title>
<ellipse fill="#fdb462" stroke="#000000" cx="254" cy="-104" rx="88.496" ry="18"/>
<text text-anchor="middle" x="254" y="-99.8" font-family="Times,serif" font-size="14.00" fill="#000000">DataVehicleService</text>
</g>
<!-- DataVehicleService&#45;&gt;AppModule -->
<g id="edge21" class="edge">
<title>DataVehicleService&#45;&gt;AppModule</title>
<path fill="none" stroke="#000000" d="M254,-122.2479C254,-145.0179 254,-181 254,-181 254,-181 1658.9661,-181 1658.9661,-181"/>
<polygon fill="#000000" stroke="#000000" points="1658.9662,-184.5001 1668.9661,-181 1658.9661,-177.5001 1658.9662,-184.5001"/>
</g>
<!-- AdminGuard -->
<g id="node23" class="node">
<title>AdminGuard</title>
<ellipse fill="#fdb462" stroke="#000000" cx="86" cy="-104" rx="61.9808" ry="18"/>
<text text-anchor="middle" x="86" y="-99.8" font-family="Times,serif" font-size="14.00" fill="#000000">AdminGuard</text>
</g>
<!-- AdminGuard&#45;&gt;AppModule -->
<g id="edge22" class="edge">
<title>AdminGuard&#45;&gt;AppModule</title>
<path fill="none" stroke="#000000" d="M86,-122.1532C86,-145.7566 86,-184 86,-184 86,-184 1659.1982,-184 1659.1982,-184"/>
<polygon fill="#000000" stroke="#000000" points="1659.1983,-187.5001 1669.1982,-184 1659.1982,-180.5001 1659.1983,-187.5001"/>
</g>
</g>
</svg>
